<?xml version="1.0" standalone="no"?>
<!DOCTYPE svg PUBLIC "-//W3C//DTD SVG 20010904//EN"
 "http://www.w3.org/TR/2001/REC-SVG-20010904/DTD/svg10.dtd">
<svg version="1.0" xmlns="http://www.w3.org/2000/svg"
 width="4000.000000pt" height="4000.000000pt" viewBox="0 0 4000.000000 4000.000000"
 preserveAspectRatio="xMidYMid meet">

<g transform="translate(0.000000,4000.000000) scale(0.100000,-0.100000)"
fill="#000000" stroke="none">
<path d="M9762 32387 l-2692 -2692 0 -9698 0 -9697 3230 0 3230 0 0 -2690 c0
-1479 3 -2690 8 -2690 4 0 1218 1210 2697 2690 l2690 2690 2155 0 2155 0 4848
4848 4847 4847 0 7543 0 7542 -10238 0 -10237 0 -2693 -2693z m21008 -5389 l0
-5923 -2152 -2152 -2153 -2153 -2155 0 -2155 0 -1882 -1882 -1883 -1883 0
1883 0 1882 -2425 0 -2425 0 0 8075 0 8075 8615 0 8615 0 0 -5922z"/>
<path d="M19460 25920 l0 -3230 1080 0 1080 0 0 3230 0 3230 -1080 0 -1080 0
0 -3230z"/>
<path d="M25390 25920 l0 -3230 1075 0 1075 0 0 3230 0 3230 -1075 0 -1075 0
0 -3230z"/>
</g>
</svg>
