<?xml version="1.0" encoding="UTF-8"?>
<!DOCTYPE svg PUBLIC "-//W3C//DTD SVG 1.1//EN" "http://www.w3.org/Graphics/SVG/1.1/DTD/svg11.dtd">
<svg xmlns="http://www.w3.org/2000/svg" version="1.1" width="72px" height="72px" style="shape-rendering:geometricPrecision; text-rendering:geometricPrecision; image-rendering:optimizeQuality; fill-rule:evenodd; clip-rule:evenodd" xmlns:xlink="http://www.w3.org/1999/xlink">
<g><path style="opacity:1" fill="#3d3c3c" d="M 34.5,-0.5 C 35.5,-0.5 36.5,-0.5 37.5,-0.5C 40.608,1.17098 44.108,2.17098 48,2.5C 50.5972,2.45622 53.0972,2.12288 55.5,1.5C 56.5937,2.868 56.2603,4.03467 54.5,5C 59.0919,6.48132 63.7586,7.64799 68.5,8.5C 67.3067,10.5267 65.64,12.0267 63.5,13C 66.3333,16.331 67.9999,20.1644 68.5,24.5C 65.7554,23.2628 63.4221,21.4295 61.5,19C 63.5127,18.1247 63.5127,16.7913 61.5,15C 47.3447,9.51107 33.6781,10.5111 20.5,18C 18.1009,18.711 15.7676,18.5443 13.5,17.5C 12.479,18.0016 12.3123,18.6683 13,19.5C 17.7096,22.9091 17.2096,25.5758 11.5,27.5C 10.5,27.5 9.5,27.5 8.5,27.5C 8.71901,26.325 8.38568,25.325 7.5,24.5C 5.46641,25.5588 3.46641,26.5588 1.5,27.5C 2.08586,21.7505 5.08586,17.9171 10.5,16C 10.0426,15.586 9.70931,15.086 9.5,14.5C 10.6477,12.8513 11.981,11.3513 13.5,10C 20.2076,6.64622 27.2076,3.14622 34.5,-0.5 Z"/></g>
<g><path style="opacity:1" fill="#0f0809" d="M 68.5,24.5 C 70.2727,26.6002 70.606,28.9335 69.5,31.5C 68.5197,30.0186 67.353,28.6853 66,27.5C 65.3658,30.5547 65.5325,33.5547 66.5,36.5C 66.1667,36.5 65.8333,36.5 65.5,36.5C 64.8333,35.1667 63.8333,34.1667 62.5,33.5C 62.5,32.8333 62.1667,32.5 61.5,32.5C 60.4747,26.636 57.308,22.3026 52,19.5C 48.9146,20.432 45.7479,21.0986 42.5,21.5C 42.631,20.7611 42.4643,20.0944 42,19.5C 35.7341,20.1486 29.5674,20.8153 23.5,21.5C 21.5,21.8333 19.5,22.1667 17.5,22.5C 17.8887,26.4137 17.2221,30.0804 15.5,33.5C 14.8365,31.9581 14.1698,30.2914 13.5,28.5C 12.0133,33.6572 11.3466,33.3239 11.5,27.5C 17.2096,25.5758 17.7096,22.9091 13,19.5C 12.3123,18.6683 12.479,18.0016 13.5,17.5C 15.7676,18.5443 18.1009,18.711 20.5,18C 33.6781,10.5111 47.3447,9.51107 61.5,15C 63.5127,16.7913 63.5127,18.1247 61.5,19C 63.4221,21.4295 65.7554,23.2628 68.5,24.5 Z"/></g>
<g><path style="opacity:1" fill="#a3947b" d="M 42.5,21.5 C 36.1667,21.5 29.8333,21.5 23.5,21.5C 29.5674,20.8153 35.7341,20.1486 42,19.5C 42.4643,20.0944 42.631,20.7611 42.5,21.5 Z"/></g>
<g><path style="opacity:1" fill="#f4e7c9" d="M 61.5,32.5 C 48.8289,32.3334 36.1623,32.5001 23.5,33C 22.944,33.3826 22.6107,33.8826 22.5,34.5C 21.5041,34.4142 20.6708,34.7476 20,35.5C 19.0138,37.7778 18.1805,40.1111 17.5,42.5C 16.3112,43.4287 14.9778,43.762 13.5,43.5C 13.5,41.1667 13.5,38.8333 13.5,36.5C 14.1667,35.5 14.8333,34.5 15.5,33.5C 17.2221,30.0804 17.8887,26.4137 17.5,22.5C 19.5,22.1667 21.5,21.8333 23.5,21.5C 29.8333,21.5 36.1667,21.5 42.5,21.5C 45.7479,21.0986 48.9146,20.432 52,19.5C 57.308,22.3026 60.4747,26.636 61.5,32.5 Z"/></g>
<g><path style="opacity:1" fill="#e8e8e8" d="M 57.5,34.5 C 56.0523,36.5551 54.719,38.7218 53.5,41C 51.0709,41.7033 48.7375,41.5366 46.5,40.5C 46.2525,38.1417 46.9192,36.1417 48.5,34.5C 51.6038,33.2248 54.6038,33.2248 57.5,34.5 Z"/></g>
<g><path style="opacity:1" fill="#e1ddca" d="M 47.5,34.5 C 45.8869,35.6923 44.2202,36.6923 42.5,37.5C 40.7313,36.5786 39.0646,35.4119 37.5,34C 41.0267,33.1925 44.3601,33.3592 47.5,34.5 Z"/></g>
<g><path style="opacity:1" fill="#a5a5a5" d="M 62.5,33.5 C 63.8333,34.1667 64.8333,35.1667 65.5,36.5C 65.6716,37.4916 65.3382,38.1583 64.5,38.5C 64.573,36.9731 63.9063,35.9731 62.5,35.5C 62.5,34.8333 62.5,34.1667 62.5,33.5 Z"/></g>
<g><path style="opacity:1" fill="#130d0f" d="M 11.5,27.5 C 11.3466,33.3239 12.0133,33.6572 13.5,28.5C 14.1698,30.2914 14.8365,31.9581 15.5,33.5C 14.8333,34.5 14.1667,35.5 13.5,36.5C 12.5318,38.6074 12.1984,40.9407 12.5,43.5C 10.901,43.2322 9.56764,43.5655 8.5,44.5C 5.1779,44.4887 3.51124,46.1554 3.5,49.5C 4.34363,55.7072 7.67696,58.3739 13.5,57.5C 27.6633,71.7425 42.8299,73.0759 59,61.5C 61.6155,58.5091 62.4488,55.1758 61.5,51.5C 58.562,52.5748 55.562,52.7415 52.5,52C 50.6763,51.34 49.343,50.1733 48.5,48.5C 47.8902,47.609 47.5569,46.609 47.5,45.5C 46.8333,44.5 46.1667,43.5 45.5,42.5C 45.5,42.1667 45.5,41.8333 45.5,41.5C 45.5,40.8333 45.8333,40.5 46.5,40.5C 48.7375,41.5366 51.0709,41.7033 53.5,41C 54.719,38.7218 56.0523,36.5551 57.5,34.5C 58.8068,35.1534 60.1401,35.8201 61.5,36.5C 62.1067,36.3764 62.44,36.0431 62.5,35.5C 63.9063,35.9731 64.573,36.9731 64.5,38.5C 64.6282,40.0898 65.2949,41.4231 66.5,42.5C 67.2975,42.0431 67.6309,41.3764 67.5,40.5C 68.0967,40.7352 68.4301,41.2352 68.5,42C 65.7764,46.7694 63.9431,51.9361 63,57.5C 59.8165,64.6789 54.3165,68.8455 46.5,70C 34.4586,72.6506 24.1253,69.6506 15.5,61C 7.14088,61.3075 2.47422,57.3075 1.5,49C 1.48409,46.6948 2.48409,45.0282 4.5,44C 3.73622,41.9307 3.23622,39.764 3,37.5C 2.66667,37.8333 2.33333,38.1667 2,38.5C 1.50137,34.8484 1.3347,31.1817 1.5,27.5C 3.46641,26.5588 5.46641,25.5588 7.5,24.5C 8.38568,25.325 8.71901,26.325 8.5,27.5C 9.5,27.5 10.5,27.5 11.5,27.5 Z"/></g>
<g><path style="opacity:1" fill="#66615f" d="M 47.5,34.5 C 47.8333,34.5 48.1667,34.5 48.5,34.5C 46.9192,36.1417 46.2525,38.1417 46.5,40.5C 45.8333,40.5 45.5,40.8333 45.5,41.5C 44.1667,41.5 42.8333,41.5 41.5,41.5C 41.4326,40.0413 41.7659,38.7079 42.5,37.5C 44.2202,36.6923 45.8869,35.6923 47.5,34.5 Z"/></g>
<g><path style="opacity:1" fill="#19181a" d="M 61.5,32.5 C 62.1667,32.5 62.5,32.8333 62.5,33.5C 62.5,34.1667 62.5,34.8333 62.5,35.5C 62.44,36.0431 62.1067,36.3764 61.5,36.5C 60.1401,35.8201 58.8068,35.1534 57.5,34.5C 54.6038,33.2248 51.6038,33.2248 48.5,34.5C 48.1667,34.5 47.8333,34.5 47.5,34.5C 44.3601,33.3592 41.0267,33.1925 37.5,34C 39.0646,35.4119 40.7313,36.5786 42.5,37.5C 41.7659,38.7079 41.4326,40.0413 41.5,41.5C 39.0508,50.6778 33.3842,54.3444 24.5,52.5C 26.631,51.6862 28.9644,51.1862 31.5,51C 30.1667,49.3333 28.8333,47.6667 27.5,46C 25.236,45.7638 23.0693,45.2638 21,44.5C 20.0799,47.3083 20.9133,49.4749 23.5,51C 23.2716,51.3988 22.9382,51.5654 22.5,51.5C 19.8881,49.9478 18.5548,47.6145 18.5,44.5C 16.8333,44.5 15.1667,44.5 13.5,44.5C 13.7471,47.9387 13.4137,51.272 12.5,54.5C 11.5,51.8333 10.5,49.1667 9.5,46.5C 8.66175,46.1583 8.32842,45.4916 8.5,44.5C 9.56764,43.5655 10.901,43.2322 12.5,43.5C 12.1984,40.9407 12.5318,38.6074 13.5,36.5C 13.5,38.8333 13.5,41.1667 13.5,43.5C 14.9778,43.762 16.3112,43.4287 17.5,42.5C 18.1805,40.1111 19.0138,37.7778 20,35.5C 20.6708,34.7476 21.5041,34.4142 22.5,34.5C 22.6107,33.8826 22.944,33.3826 23.5,33C 36.1623,32.5001 48.8289,32.3334 61.5,32.5 Z"/></g>
<g><path style="opacity:1" fill="#f0f1f1" d="M 22.5,34.5 C 25.8333,34.5 29.1667,34.5 32.5,34.5C 31.4522,42.0704 27.6189,44.0704 21,40.5C 20.2516,38.1599 20.7516,36.1599 22.5,34.5 Z"/></g>
<g><path style="opacity:1" fill="#504d4f" d="M 65.5,36.5 C 65.8333,36.5 66.1667,36.5 66.5,36.5C 67.4345,37.5676 67.7678,38.901 67.5,40.5C 67.6309,41.3764 67.2975,42.0431 66.5,42.5C 65.2949,41.4231 64.6282,40.0898 64.5,38.5C 65.3382,38.1583 65.6716,37.4916 65.5,36.5 Z"/></g>
<g><path style="opacity:1" fill="#e5b598" d="M 45.5,42.5 C 46.1667,43.5 46.8333,44.5 47.5,45.5C 47.5569,46.609 47.8902,47.609 48.5,48.5C 47.4071,52.9188 44.7405,54.2522 40.5,52.5C 42.0453,51.5481 43.712,51.2148 45.5,51.5C 45.7529,49.1727 45.0863,47.1727 43.5,45.5C 44.6119,44.7348 45.2786,43.7348 45.5,42.5 Z"/></g>
<g><path style="opacity:1" fill="#123433" d="M 47.5,45.5 C 47.369,44.7611 47.5357,44.0944 48,43.5C 52.8549,44.0107 56.3549,46.5107 58.5,51C 56.8333,51.6667 55.1667,51.6667 53.5,51C 50.6483,49.2917 48.6483,47.4583 47.5,45.5 Z"/></g>
<g><path style="opacity:1" fill="#777676" d="M 64.5,43.5 C 66.9701,44.3603 67.1368,45.6936 65,47.5C 64.51,46.2068 64.3433,44.8734 64.5,43.5 Z"/></g>
<g><path style="opacity:1" fill="#f7eacc" d="M 41.5,41.5 C 42.8333,41.5 44.1667,41.5 45.5,41.5C 45.5,41.8333 45.5,42.1667 45.5,42.5C 45.2786,43.7348 44.6119,44.7348 43.5,45.5C 45.0863,47.1727 45.7529,49.1727 45.5,51.5C 43.712,51.2148 42.0453,51.5481 40.5,52.5C 44.7405,54.2522 47.4071,52.9188 48.5,48.5C 49.343,50.1733 50.6763,51.34 52.5,52C 55.562,52.7415 58.562,52.5748 61.5,51.5C 62.4488,55.1758 61.6155,58.5091 59,61.5C 42.8299,73.0759 27.6633,71.7425 13.5,57.5C 7.67696,58.3739 4.34363,55.7072 3.5,49.5C 3.51124,46.1554 5.1779,44.4887 8.5,44.5C 8.32842,45.4916 8.66175,46.1583 9.5,46.5C 9.55943,48.7645 8.7261,49.0978 7,47.5C 5.94123,47.6301 5.1079,48.1301 4.5,49C 8.57341,49.3591 10.9067,51.5258 11.5,55.5C 12.1067,55.3764 12.44,55.0431 12.5,54.5C 13.4137,51.272 13.7471,47.9387 13.5,44.5C 15.1667,44.5 16.8333,44.5 18.5,44.5C 18.5548,47.6145 19.8881,49.9478 22.5,51.5C 22.8417,52.3382 23.5084,52.6716 24.5,52.5C 33.3842,54.3444 39.0508,50.6778 41.5,41.5 Z"/></g>
<g><path style="opacity:1" fill="#143432" d="M 24.5,52.5 C 23.5084,52.6716 22.8417,52.3382 22.5,51.5C 22.9382,51.5654 23.2716,51.3988 23.5,51C 20.9133,49.4749 20.0799,47.3083 21,44.5C 23.0693,45.2638 25.236,45.7638 27.5,46C 28.8333,47.6667 30.1667,49.3333 31.5,51C 28.9644,51.1862 26.631,51.6862 24.5,52.5 Z"/></g>
<g><path style="opacity:1" fill="#f39d74" d="M 9.5,46.5 C 10.5,49.1667 11.5,51.8333 12.5,54.5C 12.44,55.0431 12.1067,55.3764 11.5,55.5C 10.9067,51.5258 8.57341,49.3591 4.5,49C 5.1079,48.1301 5.94123,47.6301 7,47.5C 8.7261,49.0978 9.55943,48.7645 9.5,46.5 Z"/></g>
<g><path style="opacity:1" fill="#6c6861" d="M 33.5,57.5 C 38.5332,60.1063 43.5332,60.1063 48.5,57.5C 48.8333,57.8333 49.1667,58.1667 49.5,58.5C 45.9498,61.2803 41.9498,62.1136 37.5,61C 35.4556,60.5017 34.1223,59.335 33.5,57.5 Z"/></g>
</svg>
