<?xml version="1.0" encoding="UTF-8"?>
<!DOCTYPE svg PUBLIC "-//W3C//DTD SVG 1.1//EN" "http://www.w3.org/Graphics/SVG/1.1/DTD/svg11.dtd">
<svg xmlns="http://www.w3.org/2000/svg" version="1.1" width="72px" height="72px" style="shape-rendering:geometricPrecision; text-rendering:geometricPrecision; image-rendering:optimizeQuality; fill-rule:evenodd; clip-rule:evenodd" xmlns:xlink="http://www.w3.org/1999/xlink">
<g><path style="opacity:0.88" fill="#751e5c" d="M 34.5,-0.5 C 35.8333,-0.5 37.1667,-0.5 38.5,-0.5C 38.3893,0.117425 38.056,0.617425 37.5,1C 43.9734,1.82648 50.3067,1.99315 56.5,1.5C 56.67,2.82207 56.3366,3.98873 55.5,5C 60.1529,6.23047 64.8195,7.39714 69.5,8.5C 68.3067,10.5267 66.64,12.0267 64.5,13C 66.5082,15.8548 67.8415,19.0215 68.5,22.5C 65.3514,21.8397 63.8514,19.8397 64,16.5C 61.1454,12.6563 57.3121,10.823 52.5,11C 46.8333,10.3333 41.1667,10.3333 35.5,11C 29.6945,13.1584 23.8611,15.3251 18,17.5C 15.6639,16.7079 15.1639,15.3746 16.5,13.5C 15.8333,13.1667 15.1667,12.8333 14.5,12.5C 12.8228,13.1869 11.1561,13.8535 9.5,14.5C 9.28099,13.325 9.61432,12.325 10.5,11.5C 14.5627,10.0491 18.0627,7.71578 21,4.5C 21.3333,4.83333 21.6667,5.16667 22,5.5C 26.2092,3.38628 30.3759,1.38628 34.5,-0.5 Z"/></g>
<g><path style="opacity:0.963" fill="#fb23c7" d="M 68.5,22.5 C 70.1744,25.5544 70.6744,28.8877 70,32.5C 69,31.5 68,30.5 67,29.5C 66.838,33.7059 67.338,37.8725 68.5,42C 66.1981,47.4404 64.1981,52.9404 62.5,58.5C 62.4359,56.4599 62.2692,54.1266 62,51.5C 58.9433,52.4505 55.7766,52.7839 52.5,52.5C 49.0922,51.4222 47.0922,49.0889 46.5,45.5C 46.5,44.1667 46.5,42.8333 46.5,41.5C 49.0593,41.8016 51.3926,41.4682 53.5,40.5C 53.84,38.321 54.84,36.4877 56.5,35C 54.1902,34.5034 51.8568,34.3367 49.5,34.5C 43.5772,33.4169 37.9105,33.4169 32.5,34.5C 29.8333,34.5 27.1667,34.5 24.5,34.5C 23.5084,34.6716 22.8417,34.3382 22.5,33.5C 23.6085,32.71 24.9419,32.21 26.5,32C 37.8333,31.6667 49.1667,31.3333 60.5,31C 59.3584,26.5171 56.6917,23.1838 52.5,21C 50.422,21.8995 48.0887,22.3995 45.5,22.5C 36.8122,21.1916 28.1456,21.3583 19.5,23C 18.8767,25.6073 18.21,28.1073 17.5,30.5C 17.6641,27.8127 17.4974,25.146 17,22.5C 16.5831,23.756 15.7498,24.4226 14.5,24.5C 14.6107,23.8826 14.944,23.3826 15.5,23C 12.6865,21.5064 10.6865,19.3397 9.5,16.5C 9.5,15.8333 9.5,15.1667 9.5,14.5C 11.1561,13.8535 12.8228,13.1869 14.5,12.5C 15.1667,12.8333 15.8333,13.1667 16.5,13.5C 15.1639,15.3746 15.6639,16.7079 18,17.5C 23.8611,15.3251 29.6945,13.1584 35.5,11C 41.1667,10.3333 46.8333,10.3333 52.5,11C 57.3121,10.823 61.1454,12.6563 64,16.5C 63.8514,19.8397 65.3514,21.8397 68.5,22.5 Z"/></g>
<g><path style="opacity:0.763" fill="#761f5d" d="M 9.5,16.5 C 10.6865,19.3397 12.6865,21.5064 15.5,23C 14.944,23.3826 14.6107,23.8826 14.5,24.5C 13.1932,25.1534 11.8599,25.8201 10.5,26.5C 9.61432,25.675 9.28099,24.675 9.5,23.5C 6.67035,23.6941 4.00368,24.3608 1.5,25.5C 2.05739,20.61 4.72406,17.61 9.5,16.5 Z"/></g>
<g><path style="opacity:1" fill="#fdeccb" d="M 22.5,33.5 C 19.1629,34.484 17.6629,36.8173 18,40.5C 16.8904,42.0368 15.3904,42.7035 13.5,42.5C 13.3379,40.4727 13.5045,38.4727 14,36.5C 15.9473,34.9366 17.114,32.9366 17.5,30.5C 18.21,28.1073 18.8767,25.6073 19.5,23C 28.1456,21.3583 36.8122,21.1916 45.5,22.5C 48.0887,22.3995 50.422,21.8995 52.5,21C 56.6917,23.1838 59.3584,26.5171 60.5,31C 49.1667,31.3333 37.8333,31.6667 26.5,32C 24.9419,32.21 23.6085,32.71 22.5,33.5 Z"/></g>
<g><path style="opacity:0.961" fill="#fa25c6" d="M 17.5,30.5 C 17.114,32.9366 15.9473,34.9366 14,36.5C 13.5045,38.4727 13.3379,40.4727 13.5,42.5C 15.3904,42.7035 16.8904,42.0368 18,40.5C 17.6629,36.8173 19.1629,34.484 22.5,33.5C 22.8417,34.3382 23.5084,34.6716 24.5,34.5C 18.758,38.0947 19.258,40.428 26,41.5C 27.1074,41.4148 28.1074,41.0814 29,40.5C 30.4213,38.5952 31.588,36.5952 32.5,34.5C 37.9105,33.4169 43.5772,33.4169 49.5,34.5C 45.1323,39.513 46.4657,41.513 53.5,40.5C 51.3926,41.4682 49.0593,41.8016 46.5,41.5C 46.5,42.8333 46.5,44.1667 46.5,45.5C 45.7658,44.0707 44.5991,43.0707 43,42.5C 41.2006,45.8494 39.0339,49.0161 36.5,52C 31.9241,53.4764 27.2574,53.8098 22.5,53C 19.9756,51.117 18.6423,48.617 18.5,45.5C 17.1667,45.5 15.8333,45.5 14.5,45.5C 14.6641,48.1873 14.4974,50.854 14,53.5C 12.9887,54.3366 11.8221,54.67 10.5,54.5C 10.5674,53.0413 10.2341,51.7079 9.5,50.5C 9.5,49.8333 9.5,49.1667 9.5,48.5C 8.20831,45.3296 6.54165,44.9962 4.5,47.5C 3.16667,48.5 3.16667,49.5 4.5,50.5C 6.01007,56.2567 9.67674,58.4233 15.5,57C 25.2584,68.3545 37.2584,71.3545 51.5,66C 56.4523,63.5494 59.7856,59.7161 61.5,54.5C 58.3583,53.8326 55.3583,53.166 52.5,52.5C 55.7766,52.7839 58.9433,52.4505 62,51.5C 62.2692,54.1266 62.4359,56.4599 62.5,58.5C 57.2887,67.7726 49.2887,71.7726 38.5,70.5C 29.0166,70.9198 21.0166,67.7531 14.5,61C 2.72278,59.8382 -0.943886,53.8382 3.5,43C 1.74121,37.3122 1.07455,31.4789 1.5,25.5C 4.00368,24.3608 6.67035,23.6941 9.5,23.5C 9.28099,24.675 9.61432,25.675 10.5,26.5C 11.8599,25.8201 13.1932,25.1534 14.5,24.5C 15.7498,24.4226 16.5831,23.756 17,22.5C 17.4974,25.146 17.6641,27.8127 17.5,30.5 Z"/></g>
<g><path style="opacity:1" fill="#f8f3f6" d="M 49.5,34.5 C 51.8568,34.3367 54.1902,34.5034 56.5,35C 54.84,36.4877 53.84,38.321 53.5,40.5C 46.4657,41.513 45.1323,39.513 49.5,34.5 Z"/></g>
<g><path style="opacity:1" fill="#85276a" d="M 58.5,33.5 C 61.2617,33.8859 62.2617,35.2192 61.5,37.5C 60.0656,36.4116 59.0656,35.0783 58.5,33.5 Z"/></g>
<g><path style="opacity:1" fill="#f7eaf3" d="M 24.5,34.5 C 27.1667,34.5 29.8333,34.5 32.5,34.5C 31.588,36.5952 30.4213,38.5952 29,40.5C 28.1074,41.0814 27.1074,41.4148 26,41.5C 19.258,40.428 18.758,38.0947 24.5,34.5 Z"/></g>
<g><path style="opacity:1" fill="#f4e7cd" d="M 40.5,34.5 C 42.1992,34.3398 43.8659,34.5065 45.5,35C 43.4153,37.1391 41.7487,36.9725 40.5,34.5 Z"/></g>
<g><path style="opacity:1" fill="#812d68" d="M 49.5,46.5 C 51.4802,45.6324 53.1469,46.2991 54.5,48.5C 54.1667,48.8333 53.8333,49.1667 53.5,49.5C 52.1482,48.4756 50.8149,47.4756 49.5,46.5 Z"/></g>
<g><path style="opacity:1" fill="#f9e9c2" d="M 9.5,48.5 C 7.64728,47.6986 5.98061,47.3653 4.5,47.5C 6.54165,44.9962 8.20831,45.3296 9.5,48.5 Z"/></g>
<g><path style="opacity:1" fill="#fe9f78" d="M 4.5,47.5 C 5.98061,47.3653 7.64728,47.6986 9.5,48.5C 9.5,49.1667 9.5,49.8333 9.5,50.5C 7.66558,49.506 5.99891,49.506 4.5,50.5C 3.16667,49.5 3.16667,48.5 4.5,47.5 Z"/></g>
<g><path style="opacity:1" fill="#fdebcb" d="M 46.5,45.5 C 47.0922,49.0889 49.0922,51.4222 52.5,52.5C 55.3583,53.166 58.3583,53.8326 61.5,54.5C 59.7856,59.7161 56.4523,63.5494 51.5,66C 37.2584,71.3545 25.2584,68.3545 15.5,57C 9.67674,58.4233 6.01007,56.2567 4.5,50.5C 5.99891,49.506 7.66558,49.506 9.5,50.5C 10.2341,51.7079 10.5674,53.0413 10.5,54.5C 11.8221,54.67 12.9887,54.3366 14,53.5C 14.4974,50.854 14.6641,48.1873 14.5,45.5C 15.8333,45.5 17.1667,45.5 18.5,45.5C 18.6423,48.617 19.9756,51.117 22.5,53C 27.2574,53.8098 31.9241,53.4764 36.5,52C 39.0339,49.0161 41.2006,45.8494 43,42.5C 44.5991,43.0707 45.7658,44.0707 46.5,45.5 Z"/></g>
<g><path style="opacity:1" fill="#842969" d="M 21.5,47.5 C 24.3667,45.8792 26.7,46.5459 28.5,49.5C 25.5926,50.8564 23.2593,50.1897 21.5,47.5 Z"/></g>
<g><path style="opacity:1" fill="#6c6861" d="M 33.5,57.5 C 38.5332,60.1063 43.5332,60.1063 48.5,57.5C 48.8333,57.8333 49.1667,58.1667 49.5,58.5C 45.9498,61.2803 41.9498,62.1136 37.5,61C 35.4556,60.5017 34.1223,59.335 33.5,57.5 Z"/></g>
</svg>
