<?xml version="1.0" encoding="UTF-8"?>
<!DOCTYPE svg PUBLIC "-//W3C//DTD SVG 1.1//EN" "http://www.w3.org/Graphics/SVG/1.1/DTD/svg11.dtd">
<svg xmlns="http://www.w3.org/2000/svg" version="1.1" width="72px" height="72px" style="shape-rendering:geometricPrecision; text-rendering:geometricPrecision; image-rendering:optimizeQuality; fill-rule:evenodd; clip-rule:evenodd" xmlns:xlink="http://www.w3.org/1999/xlink">
<g><path style="opacity:0.884" fill="#3157b0" d="M 34.5,-0.5 C 35.8333,-0.5 37.1667,-0.5 38.5,-0.5C 38.3893,0.117425 38.056,0.617425 37.5,1C 43.9734,1.82648 50.3067,1.99315 56.5,1.5C 56.67,2.82207 56.3366,3.98873 55.5,5C 60.1529,6.23047 64.8195,7.39714 69.5,8.5C 68.3067,10.5267 66.64,12.0267 64.5,13C 66.5082,15.8548 67.8415,19.0215 68.5,22.5C 65.3514,21.8397 63.8514,19.8397 64,16.5C 61.1454,12.6563 57.3121,10.823 52.5,11C 47.8333,10.3333 43.1667,10.3333 38.5,11C 31.4061,12.4702 24.5728,14.6368 18,17.5C 15.6639,16.7079 15.1639,15.3746 16.5,13.5C 15.8333,13.1667 15.1667,12.8333 14.5,12.5C 12.5775,13.0924 10.9108,14.0924 9.5,15.5C 9.23798,14.0222 9.57131,12.6888 10.5,11.5C 14.5627,10.0491 18.0627,7.71578 21,4.5C 21.3333,4.83333 21.6667,5.16667 22,5.5C 26.2092,3.38628 30.3759,1.38628 34.5,-0.5 Z"/></g>
<g><path style="opacity:0.961" fill="#6a88dc" d="M 68.5,22.5 C 70.1744,25.5544 70.6744,28.8877 70,32.5C 69,31.5 68,30.5 67,29.5C 66.838,33.7059 67.338,37.8725 68.5,42C 68.3517,43.2559 68.0184,44.4226 67.5,45.5C 65.2612,43.9988 65.2612,42.6655 67.5,41.5C 66.9049,38.6829 65.5716,36.3495 63.5,34.5C 62.8333,35.5 62.1667,36.5 61.5,37.5C 60.0186,36.5197 58.6853,35.353 57.5,34C 54.9615,33.2042 52.6282,33.3709 50.5,34.5C 50.1667,34.5 49.8333,34.5 49.5,34.5C 48.0783,34.2914 46.745,33.7914 45.5,33C 49.6877,32.8238 53.6877,32.3238 57.5,31.5C 58.552,31.6495 59.552,31.4828 60.5,31C 59.283,29.3523 58.4497,27.519 58,25.5C 55.9417,23.9317 53.7751,22.5983 51.5,21.5C 40.8311,21.0998 30.1645,21.5998 19.5,23C 18.7871,25.8263 18.1204,28.6596 17.5,31.5C 16.7321,29.2854 16.0654,26.9521 15.5,24.5C 13.1712,22.1587 11.1712,19.4921 9.5,16.5C 9.5,16.1667 9.5,15.8333 9.5,15.5C 10.9108,14.0924 12.5775,13.0924 14.5,12.5C 15.1667,12.8333 15.8333,13.1667 16.5,13.5C 15.1639,15.3746 15.6639,16.7079 18,17.5C 24.5728,14.6368 31.4061,12.4702 38.5,11C 43.1667,10.3333 47.8333,10.3333 52.5,11C 57.3121,10.823 61.1454,12.6563 64,16.5C 63.8514,19.8397 65.3514,21.8397 68.5,22.5 Z"/></g>
<g><path style="opacity:0.801" fill="#3657b0" d="M 9.5,16.5 C 11.1712,19.4921 13.1712,22.1587 15.5,24.5C 13.7028,25.7298 11.7028,26.3964 9.5,26.5C 9.5,25.5 9.5,24.5 9.5,23.5C 6.83333,24.1667 4.16667,24.8333 1.5,25.5C 2.05739,20.61 4.72406,17.61 9.5,16.5 Z"/></g>
<g><path style="opacity:1" fill="#fcebcc" d="M 57.5,31.5 C 46.8281,31.3335 36.1615,31.5002 25.5,32C 22.9664,32.5163 20.7998,33.683 19,35.5C 18.8466,38.1506 18.0133,40.4839 16.5,42.5C 15.5,42.5 14.5,42.5 13.5,42.5C 13.3379,40.4727 13.5045,38.4727 14,36.5C 15.6692,35.1537 16.8358,33.487 17.5,31.5C 18.1204,28.6596 18.7871,25.8263 19.5,23C 30.1645,21.5998 40.8311,21.0998 51.5,21.5C 53.7751,22.5983 55.9417,23.9317 58,25.5C 58.4497,27.519 59.283,29.3523 60.5,31C 59.552,31.4828 58.552,31.6495 57.5,31.5 Z"/></g>
<g><path style="opacity:0.962" fill="#6b89dc" d="M 15.5,24.5 C 16.0654,26.9521 16.7321,29.2854 17.5,31.5C 16.8358,33.487 15.6692,35.1537 14,36.5C 13.5045,38.4727 13.3379,40.4727 13.5,42.5C 14.5,42.5 15.5,42.5 16.5,42.5C 13.142,44.3537 11.642,47.3537 12,51.5C 11.1822,46.2063 10.6822,46.2063 10.5,51.5C 9.83333,51.5 9.5,51.1667 9.5,50.5C 9.5,49.8333 9.5,49.1667 9.5,48.5C 7.54495,44.6479 5.87828,44.6479 4.5,48.5C 4.5,48.8333 4.5,49.1667 4.5,49.5C 4.5,49.8333 4.5,50.1667 4.5,50.5C 3.73209,49.7375 3.23209,48.7375 3,47.5C 2.72158,48.4158 2.22158,49.0825 1.5,49.5C 1.32051,47.0459 1.98718,44.8792 3.5,43C 1.74121,37.3122 1.07455,31.4789 1.5,25.5C 4.16667,24.8333 6.83333,24.1667 9.5,23.5C 9.5,24.5 9.5,25.5 9.5,26.5C 11.7028,26.3964 13.7028,25.7298 15.5,24.5 Z"/></g>
<g><path style="opacity:1" fill="#f8f4fa" d="M 49.5,34.5 C 49.8333,34.5 50.1667,34.5 50.5,34.5C 55.6904,33.9355 56.6904,35.6021 53.5,39.5C 52.675,40.3857 51.675,40.719 50.5,40.5C 48.6536,40.7778 47.3202,40.1112 46.5,38.5C 47.5244,37.1482 48.5244,35.8149 49.5,34.5 Z"/></g>
<g><path style="opacity:0.963" fill="#6e88dc" d="M 50.5,34.5 C 52.6282,33.3709 54.9615,33.2042 57.5,34C 58.6853,35.353 60.0186,36.5197 61.5,37.5C 62.1667,36.5 62.8333,35.5 63.5,34.5C 65.5716,36.3495 66.9049,38.6829 67.5,41.5C 65.2612,42.6655 65.2612,43.9988 67.5,45.5C 65.0007,50.1557 63.1674,55.1557 62,60.5C 58.5864,65.2525 54.0864,68.4191 48.5,70C 35.321,73.1463 23.9877,70.1463 14.5,61C 6.7906,60.7827 2.45727,56.9494 1.5,49.5C 2.22158,49.0825 2.72158,48.4158 3,47.5C 3.23209,48.7375 3.73209,49.7375 4.5,50.5C 6.01007,56.2567 9.67674,58.4233 15.5,57C 24.2652,67.1769 35.2652,70.5102 48.5,67C 54.8592,64.6408 59.1925,60.3075 61.5,54C 59.8659,53.5065 58.1992,53.3398 56.5,53.5C 53.4858,52.307 50.8191,50.4736 48.5,48C 50.4645,47.376 52.1311,47.876 53.5,49.5C 53.8333,49.1667 54.1667,48.8333 54.5,48.5C 52.9219,45.5006 50.5885,43.334 47.5,42C 48.7375,41.7679 49.7375,41.2679 50.5,40.5C 51.675,40.719 52.675,40.3857 53.5,39.5C 56.6904,35.6021 55.6904,33.9355 50.5,34.5 Z"/></g>
<g><path style="opacity:1" fill="#6d82d8" d="M 57.5,31.5 C 53.6877,32.3238 49.6877,32.8238 45.5,33C 46.745,33.7914 48.0783,34.2914 49.5,34.5C 48.5244,35.8149 47.5244,37.1482 46.5,38.5C 47.3202,40.1112 48.6536,40.7778 50.5,40.5C 49.7375,41.2679 48.7375,41.7679 47.5,42C 50.5885,43.334 52.9219,45.5006 54.5,48.5C 54.1667,48.8333 53.8333,49.1667 53.5,49.5C 52.1311,47.876 50.4645,47.376 48.5,48C 50.8191,50.4736 53.4858,52.307 56.5,53.5C 54.8008,53.6602 53.1341,53.4935 51.5,53C 50.2949,51.6244 48.9616,50.4577 47.5,49.5C 47.5,49.1667 47.5,48.8333 47.5,48.5C 46.7998,45.0294 44.7998,43.0294 41.5,42.5C 41.1113,47.7933 38.4446,51.2933 33.5,53C 29.8333,53.6667 26.1667,53.6667 22.5,53C 19.4612,51.4229 18.1279,48.9229 18.5,45.5C 17.1779,45.33 16.0113,45.6634 15,46.5C 14.5026,49.146 14.3359,51.8127 14.5,54.5C 13.1667,54.5 11.8333,54.5 10.5,54.5C 10.5,53.5 10.5,52.5 10.5,51.5C 10.6822,46.2063 11.1822,46.2063 12,51.5C 11.642,47.3537 13.142,44.3537 16.5,42.5C 18.0133,40.4839 18.8466,38.1506 19,35.5C 20.7998,33.683 22.9664,32.5163 25.5,32C 36.1615,31.5002 46.8281,31.3335 57.5,31.5 Z"/></g>
<g><path style="opacity:1" fill="#faf7fb" d="M 24.5,35.5 C 27.0593,35.1984 29.3926,35.5318 31.5,36.5C 29.1618,42.3258 25.4951,43.1591 20.5,39C 21.1029,36.9286 22.4362,35.7619 24.5,35.5 Z"/></g>
<g><path style="opacity:1" fill="#fbf0d3" d="M 40.5,35.5 C 41.9464,34.3871 43.6131,34.2204 45.5,35C 43.9769,36.7884 42.3102,36.9551 40.5,35.5 Z"/></g>
<g><path style="opacity:1" fill="#c8b6e3" d="M 24.5,35.5 C 27.0241,34.1997 29.6908,34.1997 32.5,35.5C 32.3764,36.1067 32.0431,36.44 31.5,36.5C 29.3926,35.5318 27.0593,35.1984 24.5,35.5 Z"/></g>
<g><path style="opacity:1" fill="#fbe3bd" d="M 9.5,48.5 C 7.76589,47.438 6.09922,47.438 4.5,48.5C 5.87828,44.6479 7.54495,44.6479 9.5,48.5 Z"/></g>
<g><path style="opacity:1" fill="#ff9b6d" d="M 9.5,48.5 C 9.5,49.1667 9.5,49.8333 9.5,50.5C 7.88277,49.962 6.2161,49.6287 4.5,49.5C 4.5,49.1667 4.5,48.8333 4.5,48.5C 6.09922,47.438 7.76589,47.438 9.5,48.5 Z"/></g>
<g><path style="opacity:1" fill="#fceccd" d="M 47.5,48.5 C 46.7326,49.172 46.0659,50.0053 45.5,51C 38.8327,52.3207 38.8327,52.9874 45.5,53C 46.8228,52.1841 47.4894,51.0174 47.5,49.5C 48.9616,50.4577 50.2949,51.6244 51.5,53C 53.1341,53.4935 54.8008,53.6602 56.5,53.5C 58.1992,53.3398 59.8659,53.5065 61.5,54C 59.1925,60.3075 54.8592,64.6408 48.5,67C 35.2652,70.5102 24.2652,67.1769 15.5,57C 9.67674,58.4233 6.01007,56.2567 4.5,50.5C 4.5,50.1667 4.5,49.8333 4.5,49.5C 6.2161,49.6287 7.88277,49.962 9.5,50.5C 9.5,51.1667 9.83333,51.5 10.5,51.5C 10.5,52.5 10.5,53.5 10.5,54.5C 11.8333,54.5 13.1667,54.5 14.5,54.5C 14.3359,51.8127 14.5026,49.146 15,46.5C 16.0113,45.6634 17.1779,45.33 18.5,45.5C 18.1279,48.9229 19.4612,51.4229 22.5,53C 26.1667,53.6667 29.8333,53.6667 33.5,53C 38.4446,51.2933 41.1113,47.7933 41.5,42.5C 44.7998,43.0294 46.7998,45.0294 47.5,48.5 Z"/></g>
<g><path style="opacity:1" fill="#fdb191" d="M 47.5,48.5 C 47.5,48.8333 47.5,49.1667 47.5,49.5C 47.4894,51.0174 46.8228,52.1841 45.5,53C 38.8327,52.9874 38.8327,52.3207 45.5,51C 46.0659,50.0053 46.7326,49.172 47.5,48.5 Z"/></g>
<g><path style="opacity:1" fill="#6c6861" d="M 33.5,57.5 C 38.5332,60.1063 43.5332,60.1063 48.5,57.5C 48.8333,57.8333 49.1667,58.1667 49.5,58.5C 45.9498,61.2803 41.9498,62.1136 37.5,61C 35.4556,60.5017 34.1223,59.335 33.5,57.5 Z"/></g>
</svg>
