<?xml version="1.0" encoding="UTF-8"?>
<!DOCTYPE svg PUBLIC "-//W3C//DTD SVG 1.1//EN" "http://www.w3.org/Graphics/SVG/1.1/DTD/svg11.dtd">
<svg xmlns="http://www.w3.org/2000/svg" version="1.1" width="72px" height="72px" style="shape-rendering:geometricPrecision; text-rendering:geometricPrecision; image-rendering:optimizeQuality; fill-rule:evenodd; clip-rule:evenodd" xmlns:xlink="http://www.w3.org/1999/xlink">
<g><path style="opacity:0.877" fill="#141861" d="M 34.5,-0.5 C 35.8333,-0.5 37.1667,-0.5 38.5,-0.5C 38.3893,0.117425 38.056,0.617425 37.5,1C 43.9734,1.82648 50.3067,1.99315 56.5,1.5C 56.67,2.82207 56.3366,3.98873 55.5,5C 60.1529,6.23047 64.8195,7.39714 69.5,8.5C 68.3067,10.5267 66.64,12.0267 64.5,13C 66.5082,15.8548 67.8415,19.0215 68.5,22.5C 65.3514,21.8397 63.8514,19.8397 64,16.5C 61.1454,12.6563 57.3121,10.823 52.5,11C 40.1918,9.22242 28.6918,11.3891 18,17.5C 16.9326,16.8095 15.7659,16.3095 14.5,16C 16.8718,14.5295 16.8718,13.3628 14.5,12.5C 12.5775,13.0924 10.9108,14.0924 9.5,15.5C 9.23798,14.0222 9.57131,12.6888 10.5,11.5C 14.5627,10.0491 18.0627,7.71578 21,4.5C 21.3333,4.83333 21.6667,5.16667 22,5.5C 26.2092,3.38628 30.3759,1.38628 34.5,-0.5 Z"/></g>
<g><path style="opacity:0.965" fill="#2127d9" d="M 68.5,22.5 C 70.1744,25.5544 70.6744,28.8877 70,32.5C 69,31.5 68,30.5 67,29.5C 66.838,33.7059 67.338,37.8725 68.5,42C 68.2272,43.5328 67.8938,45.0328 67.5,46.5C 65.5853,44.5838 65.5853,42.9171 67.5,41.5C 66.7865,39.1889 65.7865,37.0223 64.5,35C 63.552,34.5172 62.552,34.3505 61.5,34.5C 61.7678,32.901 61.4345,31.5676 60.5,30.5C 59.2012,25.5598 56.0345,22.2265 51,20.5C 40.1757,21.2282 29.3423,21.8949 18.5,22.5C 19.479,27.7566 17.979,32.0899 14,35.5C 13.5026,38.146 13.3359,40.8127 13.5,43.5C 17.667,43.1538 19.5003,40.8205 19,36.5C 20.7155,33.6026 23.2155,32.2693 26.5,32.5C 39.2305,32.0222 47.2305,32.3556 50.5,33.5C 49.5,33.5 48.5,33.5 47.5,33.5C 44.4281,33.1826 41.4281,33.5159 38.5,34.5C 38.6236,35.1067 38.9569,35.44 39.5,35.5C 40.1667,35.5 40.5,35.8333 40.5,36.5C 41.5463,38.7849 41.5463,41.1183 40.5,43.5C 39.2568,50.0724 35.2568,53.4057 28.5,53.5C 23.4115,53.626 20.0781,51.2926 18.5,46.5C 16.8333,45.1667 15.1667,45.1667 13.5,46.5C 15.102,49.5342 14.7687,52.2009 12.5,54.5C 11.914,54.2907 11.414,53.9574 11,53.5C 11.8539,48.0323 9.68722,45.5323 4.5,46C 3.13109,50.7642 4.46443,54.5975 8.5,57.5C 7.50838,57.3284 6.84171,57.6618 6.5,58.5C 1.15637,54.3047 0.156365,49.138 3.5,43C 1.74121,37.3122 1.07455,31.4789 1.5,25.5C 4.00368,24.3608 6.67035,23.6941 9.5,23.5C 9.28099,24.675 9.61432,25.675 10.5,26.5C 12.5165,25.8257 14.1832,24.6591 15.5,23C 12.6865,21.5064 10.6865,19.3397 9.5,16.5C 9.5,16.1667 9.5,15.8333 9.5,15.5C 10.9108,14.0924 12.5775,13.0924 14.5,12.5C 16.8718,13.3628 16.8718,14.5295 14.5,16C 15.7659,16.3095 16.9326,16.8095 18,17.5C 28.6918,11.3891 40.1918,9.22242 52.5,11C 57.3121,10.823 61.1454,12.6563 64,16.5C 63.8514,19.8397 65.3514,21.8397 68.5,22.5 Z"/></g>
<g><path style="opacity:0.726" fill="#161863" d="M 9.5,16.5 C 10.6865,19.3397 12.6865,21.5064 15.5,23C 14.1832,24.6591 12.5165,25.8257 10.5,26.5C 9.61432,25.675 9.28099,24.675 9.5,23.5C 6.67035,23.6941 4.00368,24.3608 1.5,25.5C 2.05739,20.61 4.72406,17.61 9.5,16.5 Z"/></g>
<g><path style="opacity:1" fill="#fbeccc" d="M 60.5,30.5 C 49.1667,31.1667 37.8333,31.8333 26.5,32.5C 23.2155,32.2693 20.7155,33.6026 19,36.5C 19.5003,40.8205 17.667,43.1538 13.5,43.5C 13.3359,40.8127 13.5026,38.146 14,35.5C 17.979,32.0899 19.479,27.7566 18.5,22.5C 29.3423,21.8949 40.1757,21.2282 51,20.5C 56.0345,22.2265 59.2012,25.5598 60.5,30.5 Z"/></g>
<g><path style="opacity:1" fill="#5f57d0" d="M 60.5,30.5 C 61.4345,31.5676 61.7678,32.901 61.5,34.5C 60.3478,33.375 59.3478,33.375 58.5,34.5C 57.8333,34.8333 57.1667,35.1667 56.5,35.5C 54.7354,34.5386 52.7354,34.2053 50.5,34.5C 50.5,34.1667 50.5,33.8333 50.5,33.5C 47.2305,32.3556 39.2305,32.0222 26.5,32.5C 37.8333,31.8333 49.1667,31.1667 60.5,30.5 Z"/></g>
<g><path style="opacity:1" fill="#776bc8" d="M 47.5,33.5 C 47.5,34.1667 47.1667,34.5 46.5,34.5C 43.9407,34.1984 41.6074,34.5318 39.5,35.5C 38.9569,35.44 38.6236,35.1067 38.5,34.5C 41.4281,33.5159 44.4281,33.1826 47.5,33.5 Z"/></g>
<g><path style="opacity:1" fill="#f3efd2" d="M 39.5,35.5 C 41.6074,34.5318 43.9407,34.1984 46.5,34.5C 45.0101,36.2798 43.0101,36.9465 40.5,36.5C 40.5,35.8333 40.1667,35.5 39.5,35.5 Z"/></g>
<g><path style="opacity:1" fill="#9ea2ed" d="M 61.5,34.5 C 62.5624,35.5754 62.5624,36.5754 61.5,37.5C 60.452,36.452 59.452,35.452 58.5,34.5C 59.3478,33.375 60.3478,33.375 61.5,34.5 Z"/></g>
<g><path style="opacity:1" fill="#efedf8" d="M 23.5,34.5 C 26.5719,34.1826 29.5719,34.5159 32.5,35.5C 31.1891,38.1354 29.5224,40.4687 27.5,42.5C 20.5136,42.0679 19.1803,39.4012 23.5,34.5 Z"/></g>
<g><path style="opacity:1" fill="#a8aaee" d="M 33.5,35.5 C 35.0927,34.1328 36.4261,34.4661 37.5,36.5C 37.1667,36.8333 36.8333,37.1667 36.5,37.5C 35.4822,36.8075 34.4822,36.1408 33.5,35.5 Z"/></g>
<g><path style="opacity:0.981" fill="#2a2ad8" d="M 47.5,33.5 C 48.5,33.5 49.5,33.5 50.5,33.5C 50.5,33.8333 50.5,34.1667 50.5,34.5C 47.2244,35.1216 45.8911,37.1216 46.5,40.5C 48.4008,40.4332 50.2341,40.7665 52,41.5C 53.743,39.68 55.243,37.68 56.5,35.5C 57.1667,35.1667 57.8333,34.8333 58.5,34.5C 59.452,35.452 60.452,36.452 61.5,37.5C 62.5624,36.5754 62.5624,35.5754 61.5,34.5C 62.552,34.3505 63.552,34.5172 64.5,35C 65.7865,37.0223 66.7865,39.1889 67.5,41.5C 65.5853,42.9171 65.5853,44.5838 67.5,46.5C 64.8027,50.7462 62.9693,55.4129 62,60.5C 58.5864,65.2525 54.0864,68.4191 48.5,70C 35.321,73.1463 23.9877,70.1463 14.5,61C 11.4776,60.9016 8.81092,60.0682 6.5,58.5C 6.84171,57.6618 7.50838,57.3284 8.5,57.5C 10.4672,57.7394 12.3005,57.4061 14,56.5C 22.8341,66.8406 34.0007,70.674 47.5,68C 51.8734,66.2869 55.7067,63.7869 59,60.5C 60.7068,58.0912 61.5402,55.4245 61.5,52.5C 52.3054,54.2905 46.9721,50.6238 45.5,41.5C 43.4458,41.3653 41.7791,42.032 40.5,43.5C 41.5463,41.1183 41.5463,38.7849 40.5,36.5C 43.0101,36.9465 45.0101,36.2798 46.5,34.5C 47.1667,34.5 47.5,34.1667 47.5,33.5 Z"/></g>
<g><path style="opacity:1" fill="#f0edf8" d="M 50.5,34.5 C 52.7354,34.2053 54.7354,34.5386 56.5,35.5C 55.243,37.68 53.743,39.68 52,41.5C 50.2341,40.7665 48.4008,40.4332 46.5,40.5C 45.8911,37.1216 47.2244,35.1216 50.5,34.5 Z"/></g>
<g><path style="opacity:1" fill="#a29be4" d="M 49.5,44.5 C 51.7288,45.0553 53.3954,46.3886 54.5,48.5C 51.8534,48.8951 50.1867,47.5618 49.5,44.5 Z"/></g>
<g><path style="opacity:1" fill="#f9e7cb" d="M 8.5,57.5 C 4.46443,54.5975 3.13109,50.7642 4.5,46C 9.68722,45.5323 11.8539,48.0323 11,53.5C 11.414,53.9574 11.914,54.2907 12.5,54.5C 14.7687,52.2009 15.102,49.5342 13.5,46.5C 15.1667,45.1667 16.8333,45.1667 18.5,46.5C 20.0781,51.2926 23.4115,53.626 28.5,53.5C 35.2568,53.4057 39.2568,50.0724 40.5,43.5C 41.7791,42.032 43.4458,41.3653 45.5,41.5C 46.9721,50.6238 52.3054,54.2905 61.5,52.5C 61.5402,55.4245 60.7068,58.0912 59,60.5C 55.7067,63.7869 51.8734,66.2869 47.5,68C 34.0007,70.674 22.8341,66.8406 14,56.5C 12.3005,57.4061 10.4672,57.7394 8.5,57.5 Z"/></g>
<g><path style="opacity:1" fill="#9c96e5" d="M 20.5,46.5 C 20.56,45.9569 20.8933,45.6236 21.5,45.5C 25.0997,45.7256 27.7664,47.3923 29.5,50.5C 28.635,51.5827 27.635,51.7494 26.5,51C 24.0324,50.0207 22.0324,48.5207 20.5,46.5 Z"/></g>
<g><path style="opacity:1" fill="#6c6861" d="M 33.5,57.5 C 38.5332,60.1063 43.5332,60.1063 48.5,57.5C 48.8333,57.8333 49.1667,58.1667 49.5,58.5C 45.9498,61.2803 41.9498,62.1136 37.5,61C 35.4556,60.5017 34.1223,59.335 33.5,57.5 Z"/></g>
</svg>
