<?xml version="1.0" encoding="UTF-8"?>
<!DOCTYPE svg PUBLIC "-//W3C//DTD SVG 1.1//EN" "http://www.w3.org/Graphics/SVG/1.1/DTD/svg11.dtd">
<svg xmlns="http://www.w3.org/2000/svg" version="1.1" width="72px" height="72px" style="shape-rendering:geometricPrecision; text-rendering:geometricPrecision; image-rendering:optimizeQuality; fill-rule:evenodd; clip-rule:evenodd" xmlns:xlink="http://www.w3.org/1999/xlink">
<g><path style="opacity:0.877" fill="#76218a" d="M 34.5,-0.5 C 35.8333,-0.5 37.1667,-0.5 38.5,-0.5C 38.3893,0.117425 38.056,0.617425 37.5,1C 43.9734,1.82648 50.3067,1.99315 56.5,1.5C 56.67,2.82207 56.3366,3.98873 55.5,5C 60.1529,6.23047 64.8195,7.39714 69.5,8.5C 68.3067,10.5267 66.64,12.0267 64.5,13C 66.5082,15.8548 67.8415,19.0215 68.5,22.5C 65.3514,21.8397 63.8514,19.8397 64,16.5C 61.1454,12.6563 57.3121,10.823 52.5,11C 46.8333,10.3333 41.1667,10.3333 35.5,11C 29.634,13.1763 23.8007,15.343 18,17.5C 15.6639,16.7079 15.1639,15.3746 16.5,13.5C 15.8333,13.1667 15.1667,12.8333 14.5,12.5C 12.5775,13.0924 10.9108,14.0924 9.5,15.5C 9.23798,14.0222 9.57131,12.6888 10.5,11.5C 14.5627,10.0491 18.0627,7.71578 21,4.5C 21.3333,4.83333 21.6667,5.16667 22,5.5C 26.2092,3.38628 30.3759,1.38628 34.5,-0.5 Z"/></g>
<g><path style="opacity:0.96" fill="#af30cf" d="M 68.5,22.5 C 70.1744,25.5544 70.6744,28.8877 70,32.5C 69,31.5 68,30.5 67,29.5C 66.838,33.7059 67.338,37.8725 68.5,42C 68.0788,44.1846 67.5788,46.3513 67,48.5C 65.3743,49.9555 64.2076,51.6221 63.5,53.5C 63.2172,52.7109 62.7172,52.0442 62,51.5C 60.6976,52.0848 59.531,52.7515 58.5,53.5C 51.2904,53.9617 46.9571,50.6283 45.5,43.5C 45.6567,42.1266 45.49,40.7932 45,39.5C 43.4815,38.8366 42.3149,37.8366 41.5,36.5C 42.9587,36.5674 44.2921,36.2341 45.5,35.5C 46.0431,35.44 46.3764,35.1067 46.5,34.5C 43.1565,33.2429 39.8231,33.2429 36.5,34.5C 34.739,33.9649 33.4057,32.9649 32.5,31.5C 41.8393,31.6665 51.1726,31.4998 60.5,31C 59.283,29.3523 58.4497,27.519 58,25.5C 55.9417,23.9317 53.7751,22.5983 51.5,21.5C 40.8331,21.0567 30.1665,21.5567 19.5,23C 18.7871,25.8263 18.1204,28.6596 17.5,31.5C 16.8333,28.5 16.1667,25.5 15.5,22.5C 14.7611,22.631 14.0944,22.4643 13.5,22C 12.0229,20.1879 10.6896,18.3545 9.5,16.5C 9.5,16.1667 9.5,15.8333 9.5,15.5C 10.9108,14.0924 12.5775,13.0924 14.5,12.5C 15.1667,12.8333 15.8333,13.1667 16.5,13.5C 15.1639,15.3746 15.6639,16.7079 18,17.5C 23.8007,15.343 29.634,13.1763 35.5,11C 41.1667,10.3333 46.8333,10.3333 52.5,11C 57.3121,10.823 61.1454,12.6563 64,16.5C 63.8514,19.8397 65.3514,21.8397 68.5,22.5 Z"/></g>
<g><path style="opacity:0.989" fill="#76228b" d="M 9.5,16.5 C 10.6896,18.3545 12.0229,20.1879 13.5,22C 14.0944,22.4643 14.7611,22.631 15.5,22.5C 14.5248,24.5128 12.8581,25.8461 10.5,26.5C 9.61432,25.675 9.28099,24.675 9.5,23.5C 6.67035,23.6941 4.00368,24.3608 1.5,25.5C 2.05739,20.61 4.72406,17.61 9.5,16.5 Z"/></g>
<g><path style="opacity:1" fill="#fcebcc" d="M 32.5,31.5 C 23.5771,30.2741 18.2438,33.9408 16.5,42.5C 15.5,42.5 14.5,42.5 13.5,42.5C 13.3379,40.4727 13.5045,38.4727 14,36.5C 15.6692,35.1537 16.8358,33.487 17.5,31.5C 18.1204,28.6596 18.7871,25.8263 19.5,23C 30.1665,21.5567 40.8331,21.0567 51.5,21.5C 53.7751,22.5983 55.9417,23.9317 58,25.5C 58.4497,27.519 59.283,29.3523 60.5,31C 51.1726,31.4998 41.8393,31.6665 32.5,31.5 Z"/></g>
<g><path style="opacity:0.883" fill="#b132d0" d="M 15.5,22.5 C 16.1667,25.5 16.8333,28.5 17.5,31.5C 16.8358,33.487 15.6692,35.1537 14,36.5C 13.5045,38.4727 13.3379,40.4727 13.5,42.5C 14.5,42.5 15.5,42.5 16.5,42.5C 17.625,43.3478 17.625,44.3478 16.5,45.5C 14.8326,48.2615 13.8326,51.4281 13.5,55C 12.5509,55.6172 11.7175,55.4506 11,54.5C 10.5899,53.0993 10.0899,51.766 9.5,50.5C 9.5,49.8333 9.5,49.1667 9.5,48.5C 8.60791,46.0543 7.10791,45.3877 5,46.5C 3.90772,54.7413 7.40772,58.2413 15.5,57C 24.3241,66.9631 35.3241,70.2965 48.5,67C 54.8592,64.6408 59.1925,60.3075 61.5,54C 60.552,53.5172 59.552,53.3505 58.5,53.5C 59.531,52.7515 60.6976,52.0848 62,51.5C 62.7172,52.0442 63.2172,52.7109 63.5,53.5C 62.4234,60.764 58.4234,65.9307 51.5,69C 43.913,70.5625 36.2464,70.8959 28.5,70C 23.3887,67.5397 18.722,64.5397 14.5,61C 2.72278,59.8382 -0.943886,53.8382 3.5,43C 1.74121,37.3122 1.07455,31.4789 1.5,25.5C 4.00368,24.3608 6.67035,23.6941 9.5,23.5C 9.28099,24.675 9.61432,25.675 10.5,26.5C 12.8581,25.8461 14.5248,24.5128 15.5,22.5 Z"/></g>
<g><path style="opacity:1" fill="#f8ecd5" d="M 45.5,35.5 C 44.2921,36.2341 42.9587,36.5674 41.5,36.5C 41.3893,35.8826 41.056,35.3826 40.5,35C 42.3869,34.2204 44.0536,34.3871 45.5,35.5 Z"/></g>
<g><path style="opacity:1" fill="#f7eefa" d="M 49.5,34.5 C 51.8568,34.3367 54.1902,34.5034 56.5,35C 55.1279,36.2419 54.1279,37.7419 53.5,39.5C 46.5291,41.5507 45.1958,39.8841 49.5,34.5 Z"/></g>
<g><path style="opacity:1" fill="#ad32cc" d="M 32.5,31.5 C 33.4057,32.9649 34.739,33.9649 36.5,34.5C 39.8231,33.2429 43.1565,33.2429 46.5,34.5C 46.3764,35.1067 46.0431,35.44 45.5,35.5C 44.0536,34.3871 42.3869,34.2204 40.5,35C 41.056,35.3826 41.3893,35.8826 41.5,36.5C 42.3149,37.8366 43.4815,38.8366 45,39.5C 45.49,40.7932 45.6567,42.1266 45.5,43.5C 44.2921,42.7659 42.9587,42.4326 41.5,42.5C 41.1113,47.7933 38.4446,51.2933 33.5,53C 28.7712,53.9956 24.2712,53.4956 20,51.5C 19.4136,48.9807 18.2469,46.9807 16.5,45.5C 17.625,44.3478 17.625,43.3478 16.5,42.5C 18.2438,33.9408 23.5771,30.2741 32.5,31.5 Z"/></g>
<g><path style="opacity:1" fill="#f6ebf9" d="M 24.5,34.5 C 31.9132,33.4323 33.2465,35.599 28.5,41C 25.6148,41.2787 22.9481,40.612 20.5,39C 21.3574,36.9812 22.6908,35.4812 24.5,34.5 Z"/></g>
<g><path style="opacity:1" fill="#fdebcc" d="M 45.5,43.5 C 46.9571,50.6283 51.2904,53.9617 58.5,53.5C 59.552,53.3505 60.552,53.5172 61.5,54C 59.1925,60.3075 54.8592,64.6408 48.5,67C 35.3241,70.2965 24.3241,66.9631 15.5,57C 7.40772,58.2413 3.90772,54.7413 5,46.5C 7.10791,45.3877 8.60791,46.0543 9.5,48.5C 4.16252,47.8695 4.16252,48.5362 9.5,50.5C 10.0899,51.766 10.5899,53.0993 11,54.5C 11.7175,55.4506 12.5509,55.6172 13.5,55C 13.8326,51.4281 14.8326,48.2615 16.5,45.5C 18.2469,46.9807 19.4136,48.9807 20,51.5C 24.2712,53.4956 28.7712,53.9956 33.5,53C 38.4446,51.2933 41.1113,47.7933 41.5,42.5C 42.9587,42.4326 44.2921,42.7659 45.5,43.5 Z"/></g>
<g><path style="opacity:1" fill="#ff9c6d" d="M 9.5,48.5 C 9.5,49.1667 9.5,49.8333 9.5,50.5C 4.16252,48.5362 4.16252,47.8695 9.5,48.5 Z"/></g>
<g><path style="opacity:1" fill="#6c6861" d="M 33.5,57.5 C 38.5332,60.1063 43.5332,60.1063 48.5,57.5C 48.8333,57.8333 49.1667,58.1667 49.5,58.5C 45.9498,61.2803 41.9498,62.1136 37.5,61C 35.4556,60.5017 34.1223,59.335 33.5,57.5 Z"/></g>
</svg>
