<?xml version="1.0" encoding="UTF-8"?>
<!DOCTYPE svg PUBLIC "-//W3C//DTD SVG 1.1//EN" "http://www.w3.org/Graphics/SVG/1.1/DTD/svg11.dtd">
<svg xmlns="http://www.w3.org/2000/svg" version="1.1" width="72px" height="72px" style="shape-rendering:geometricPrecision; text-rendering:geometricPrecision; image-rendering:optimizeQuality; fill-rule:evenodd; clip-rule:evenodd" xmlns:xlink="http://www.w3.org/1999/xlink">
<g><path style="opacity:0.884" fill="#a55809" d="M 34.5,-0.5 C 35.8333,-0.5 37.1667,-0.5 38.5,-0.5C 38.3893,0.117425 38.056,0.617425 37.5,1C 43.9734,1.82648 50.3067,1.99315 56.5,1.5C 56.67,2.82207 56.3366,3.98873 55.5,5C 60.1529,6.23047 64.8195,7.39714 69.5,8.5C 68.3067,10.5267 66.64,12.0267 64.5,13C 66.5082,15.8548 67.8415,19.0215 68.5,22.5C 65.3514,21.8397 63.8514,19.8397 64,16.5C 62.4571,14.6217 60.6238,13.1217 58.5,12C 51.859,10.8806 45.1923,10.5472 38.5,11C 31.4126,12.4656 24.5793,14.6323 18,17.5C 16.9326,16.8095 15.7659,16.3095 14.5,16C 16.8718,14.5295 16.8718,13.3628 14.5,12.5C 12.5775,13.0924 10.9108,14.0924 9.5,15.5C 9.23798,14.0222 9.57131,12.6888 10.5,11.5C 14.5627,10.0491 18.0627,7.71578 21,4.5C 21.3333,4.83333 21.6667,5.16667 22,5.5C 26.2092,3.38628 30.3759,1.38628 34.5,-0.5 Z"/></g>
<g><path style="opacity:0.96" fill="#f77c09" d="M 68.5,22.5 C 70.1744,25.5544 70.6744,28.8877 70,32.5C 69,31.5 68,30.5 67,29.5C 66.5702,32.1922 66.7369,34.8589 67.5,37.5C 66.9284,39.1188 66.5951,40.7855 66.5,42.5C 65.0512,40.3894 64.0512,38.0561 63.5,35.5C 63.0431,34.7025 62.3764,34.3691 61.5,34.5C 61.7678,32.901 61.4345,31.5676 60.5,30.5C 59.264,25.6864 56.264,22.353 51.5,20.5C 41.1937,21.2866 30.8604,21.7866 20.5,22C 19.1133,26.7998 16.9467,31.2998 14,35.5C 13.5026,38.146 13.3359,40.8127 13.5,43.5C 17.667,43.1538 19.5003,40.8205 19,36.5C 20.678,34.3341 22.8447,33.0007 25.5,32.5C 27.5,33.1667 29.5,33.8333 31.5,34.5C 27.7432,34.0708 24.2432,34.7375 21,36.5C 20.2195,37.9437 20.3861,39.277 21.5,40.5C 23.9622,42.0658 26.4622,42.3992 29,41.5C 30.705,39.4234 31.8717,37.09 32.5,34.5C 32.5,33.8333 32.8333,33.5 33.5,33.5C 33.8859,36.2617 35.2192,37.2617 37.5,36.5C 36.8075,35.4822 36.1408,34.4822 35.5,33.5C 36.5,33.5 37.5,33.5 38.5,33.5C 38.3284,34.4916 38.6618,35.1583 39.5,35.5C 40.4584,35.9528 41.2917,36.6195 42,37.5C 43.0113,36.6634 44.1779,36.33 45.5,36.5C 43.9893,38.8375 44.3227,39.5042 46.5,38.5C 47.8021,40.0276 49.4687,41.0276 51.5,41.5C 49.5,41.5 47.5,41.5 45.5,41.5C 44.0222,41.238 42.6888,41.5713 41.5,42.5C 37.6436,53.4518 30.6436,56.1185 20.5,50.5C 19.7212,46.6553 17.3879,44.9887 13.5,45.5C 13.2924,47.9201 13.6258,50.2534 14.5,52.5C 12.5365,55.1939 11.2032,54.8606 10.5,51.5C 10.7678,49.901 10.4345,48.5676 9.5,47.5C 9.16667,46.5 8.5,45.8333 7.5,45.5C 6.43236,44.5655 5.09903,44.2322 3.5,44.5C 1.81731,38.3019 1.15064,31.9685 1.5,25.5C 4.16667,24.8333 6.83333,24.1667 9.5,23.5C 9.28099,24.675 9.61432,25.675 10.5,26.5C 12.5652,26.047 14.2318,25.047 15.5,23.5C 12.7915,21.7339 10.7915,19.4006 9.5,16.5C 9.5,16.1667 9.5,15.8333 9.5,15.5C 10.9108,14.0924 12.5775,13.0924 14.5,12.5C 16.8718,13.3628 16.8718,14.5295 14.5,16C 15.7659,16.3095 16.9326,16.8095 18,17.5C 24.5793,14.6323 31.4126,12.4656 38.5,11C 45.1923,10.5472 51.859,10.8806 58.5,12C 60.6238,13.1217 62.4571,14.6217 64,16.5C 63.8514,19.8397 65.3514,21.8397 68.5,22.5 Z"/></g>
<g><path style="opacity:0.827" fill="#a45709" d="M 9.5,16.5 C 10.7915,19.4006 12.7915,21.7339 15.5,23.5C 14.2318,25.047 12.5652,26.047 10.5,26.5C 9.61432,25.675 9.28099,24.675 9.5,23.5C 6.83333,24.1667 4.16667,24.8333 1.5,25.5C 2.05739,20.61 4.72406,17.61 9.5,16.5 Z"/></g>
<g><path style="opacity:1" fill="#feeccc" d="M 60.5,30.5 C 60.631,31.2389 60.4643,31.9056 60,32.5C 49.0686,31.171 38.2353,31.171 27.5,32.5C 26.8333,32.5 26.1667,32.5 25.5,32.5C 22.8447,33.0007 20.678,34.3341 19,36.5C 19.5003,40.8205 17.667,43.1538 13.5,43.5C 13.3359,40.8127 13.5026,38.146 14,35.5C 16.9467,31.2998 19.1133,26.7998 20.5,22C 30.8604,21.7866 41.1937,21.2866 51.5,20.5C 56.264,22.353 59.264,25.6864 60.5,30.5 Z"/></g>
<g><path style="opacity:1" fill="#f49543" d="M 60.5,30.5 C 61.4345,31.5676 61.7678,32.901 61.5,34.5C 63.0948,36.3738 62.7615,37.2071 60.5,37C 58.9632,35.8904 58.2965,34.3904 58.5,32.5C 48.1667,32.5 37.8333,32.5 27.5,32.5C 38.2353,31.171 49.0686,31.171 60,32.5C 60.4643,31.9056 60.631,31.2389 60.5,30.5 Z"/></g>
<g><path style="opacity:1" fill="#f39e5c" d="M 38.5,33.5 C 41.9725,33.1596 44.6391,33.493 46.5,34.5C 43.9407,34.1984 41.6074,34.5318 39.5,35.5C 38.6618,35.1583 38.3284,34.4916 38.5,33.5 Z"/></g>
<g><path style="opacity:1" fill="#fdf3ee" d="M 31.5,34.5 C 31.8333,34.5 32.1667,34.5 32.5,34.5C 31.8717,37.09 30.705,39.4234 29,41.5C 26.4622,42.3992 23.9622,42.0658 21.5,40.5C 20.3861,39.277 20.2195,37.9437 21,36.5C 24.2432,34.7375 27.7432,34.0708 31.5,34.5 Z"/></g>
<g><path style="opacity:1" fill="#fdf1ea" d="M 51.5,41.5 C 49.4687,41.0276 47.8021,40.0276 46.5,38.5C 48.3523,34.2396 51.6857,32.5729 56.5,33.5C 56.0198,36.0046 55.0198,38.3379 53.5,40.5C 53.0431,41.2975 52.3764,41.6309 51.5,41.5 Z"/></g>
<g><path style="opacity:1" fill="#fef3de" d="M 39.5,35.5 C 41.6074,34.5318 43.9407,34.1984 46.5,34.5C 46.1667,35.1667 45.8333,35.8333 45.5,36.5C 44.1779,36.33 43.0113,36.6634 42,37.5C 41.2917,36.6195 40.4584,35.9528 39.5,35.5 Z"/></g>
<g><path style="opacity:1" fill="#f5af73" d="M 33.5,33.5 C 34.1667,33.5 34.8333,33.5 35.5,33.5C 36.1408,34.4822 36.8075,35.4822 37.5,36.5C 35.2192,37.2617 33.8859,36.2617 33.5,33.5 Z"/></g>
<g><path style="opacity:0.968" fill="#f77a0c" d="M 25.5,32.5 C 26.1667,32.5 26.8333,32.5 27.5,32.5C 37.8333,32.5 48.1667,32.5 58.5,32.5C 58.2965,34.3904 58.9632,35.8904 60.5,37C 62.7615,37.2071 63.0948,36.3738 61.5,34.5C 62.3764,34.3691 63.0431,34.7025 63.5,35.5C 64.0512,38.0561 65.0512,40.3894 66.5,42.5C 66.5951,40.7855 66.9284,39.1188 67.5,37.5C 68.3897,39.7819 68.5564,42.1152 68,44.5C 65.2289,49.4719 63.2289,54.8052 62,60.5C 58.5864,65.2525 54.0864,68.4191 48.5,70C 35.321,73.1463 23.9877,70.1463 14.5,61C 4.5137,60.4423 0.347037,55.2757 2,45.5C 2.38258,44.944 2.88258,44.6107 3.5,44.5C 5.09903,44.2322 6.43236,44.5655 7.5,45.5C 6.20895,45.2627 5.20895,45.596 4.5,46.5C 3.16667,48.1667 3.16667,49.8333 4.5,51.5C 5.76024,57.3789 8.92691,59.0456 14,56.5C 25.9381,69.4133 39.7715,71.9133 55.5,64C 66.0602,54.2369 64.7269,50.2369 51.5,52C 48.0439,49.2462 46.0439,45.7462 45.5,41.5C 47.5,41.5 49.5,41.5 51.5,41.5C 52.3764,41.6309 53.0431,41.2975 53.5,40.5C 55.0198,38.3379 56.0198,36.0046 56.5,33.5C 51.6857,32.5729 48.3523,34.2396 46.5,38.5C 44.3227,39.5042 43.9893,38.8375 45.5,36.5C 45.8333,35.8333 46.1667,35.1667 46.5,34.5C 44.6391,33.493 41.9725,33.1596 38.5,33.5C 37.5,33.5 36.5,33.5 35.5,33.5C 34.8333,33.5 34.1667,33.5 33.5,33.5C 32.8333,33.5 32.5,33.8333 32.5,34.5C 32.1667,34.5 31.8333,34.5 31.5,34.5C 29.5,33.8333 27.5,33.1667 25.5,32.5 Z"/></g>
<g><path style="opacity:1" fill="#ffecd2" d="M 7.5,45.5 C 8.5,45.8333 9.16667,46.5 9.5,47.5C 8.18366,47.4737 6.68366,47.8071 5,48.5C 4.53566,47.9056 4.36899,47.2389 4.5,46.5C 5.20895,45.596 6.20895,45.2627 7.5,45.5 Z"/></g>
<g><path style="opacity:1" fill="#feeacb" d="M 45.5,41.5 C 46.0439,45.7462 48.0439,49.2462 51.5,52C 64.7269,50.2369 66.0602,54.2369 55.5,64C 39.7715,71.9133 25.9381,69.4133 14,56.5C 8.92691,59.0456 5.76024,57.3789 4.5,51.5C 4.47008,50.5028 4.97008,49.8361 6,49.5C 7.585,50.0439 9.085,50.7106 10.5,51.5C 11.2032,54.8606 12.5365,55.1939 14.5,52.5C 13.6258,50.2534 13.2924,47.9201 13.5,45.5C 17.3879,44.9887 19.7212,46.6553 20.5,50.5C 30.6436,56.1185 37.6436,53.4518 41.5,42.5C 42.6888,41.5713 44.0222,41.238 45.5,41.5 Z"/></g>
<g><path style="opacity:1" fill="#ffa06f" d="M 4.5,46.5 C 4.36899,47.2389 4.53566,47.9056 5,48.5C 6.68366,47.8071 8.18366,47.4737 9.5,47.5C 10.4345,48.5676 10.7678,49.901 10.5,51.5C 9.085,50.7106 7.585,50.0439 6,49.5C 4.97008,49.8361 4.47008,50.5028 4.5,51.5C 3.16667,49.8333 3.16667,48.1667 4.5,46.5 Z"/></g>
<g><path style="opacity:1" fill="#f4b178" d="M 48.5,44.5 C 52.3488,44.502 55.0155,46.3353 56.5,50C 52.3498,50.3529 49.6831,48.5195 48.5,44.5 Z"/></g>
<g><path style="opacity:1" fill="#f4b179" d="M 20.5,46.5 C 24.6622,45.2289 27.9955,46.5622 30.5,50.5C 26.0596,51.9468 22.7262,50.6134 20.5,46.5 Z"/></g>
<g><path style="opacity:1" fill="#6c6861" d="M 33.5,57.5 C 38.5332,60.1063 43.5332,60.1063 48.5,57.5C 48.8333,57.8333 49.1667,58.1667 49.5,58.5C 45.9498,61.2803 41.9498,62.1136 37.5,61C 35.4556,60.5017 34.1223,59.335 33.5,57.5 Z"/></g>
</svg>
