<?xml version="1.0" encoding="UTF-8"?>
<!DOCTYPE svg PUBLIC "-//W3C//DTD SVG 1.1//EN" "http://www.w3.org/Graphics/SVG/1.1/DTD/svg11.dtd">
<svg xmlns="http://www.w3.org/2000/svg" version="1.1" width="72px" height="72px" style="shape-rendering:geometricPrecision; text-rendering:geometricPrecision; image-rendering:optimizeQuality; fill-rule:evenodd; clip-rule:evenodd" xmlns:xlink="http://www.w3.org/1999/xlink">
<g><path style="opacity:0.936" fill="#901111" d="M 34.5,-0.5 C 35.8333,-0.5 37.1667,-0.5 38.5,-0.5C 38.3893,0.117425 38.056,0.617425 37.5,1C 43.9734,1.82648 50.3067,1.99315 56.5,1.5C 56.67,2.82207 56.3366,3.98873 55.5,5C 60.1529,6.23047 64.8195,7.39714 69.5,8.5C 68.3067,10.5267 66.64,12.0267 64.5,13C 65.9775,16.1198 67.3108,19.2864 68.5,22.5C 65.3514,21.8397 63.8514,19.8397 64,16.5C 62.4571,14.6217 60.6238,13.1217 58.5,12C 48.732,9.67641 39.0653,10.0097 29.5,13C 24.2556,16.3447 18.9222,17.5114 13.5,16.5C 17.824,13.7294 17.4906,12.5628 12.5,13C 11.5697,14.1939 10.9031,15.5272 10.5,17C 11.2831,19.9378 12.9497,22.1045 15.5,23.5C 14.089,25.539 12.089,26.539 9.5,26.5C 9.5,25.5 9.5,24.5 9.5,23.5C 6.9009,23.5494 4.73423,24.5494 3,26.5C 2.61742,25.944 2.11742,25.6107 1.5,25.5C 1.93825,21.058 4.27158,18.058 8.5,16.5C 9.16667,14.8333 9.83333,13.1667 10.5,11.5C 14.5627,10.0491 18.0627,7.71578 21,4.5C 21.3333,4.83333 21.6667,5.16667 22,5.5C 26.2092,3.38628 30.3759,1.38628 34.5,-0.5 Z"/></g>
<g><path style="opacity:0.968" fill="#fc1f15" d="M 68.5,22.5 C 70.1744,25.5544 70.6744,28.8877 70,32.5C 69,31.5 68,30.5 67,29.5C 66.9059,33.8744 67.4059,38.2077 68.5,42.5C 68.1667,42.5 67.8333,42.5 67.5,42.5C 67.1039,39.279 65.7705,36.6123 63.5,34.5C 64.3066,32.2847 63.3066,30.9513 60.5,30.5C 59.9192,26.0802 57.5859,22.9135 53.5,21C 49.8517,20.9379 46.185,21.1046 42.5,21.5C 42.631,20.7611 42.4643,20.0944 42,19.5C 36.7334,20.1451 31.5667,20.8118 26.5,21.5C 23.4824,21.7038 20.4824,22.0371 17.5,22.5C 16.8333,22.8333 16.1667,23.1667 15.5,23.5C 12.9497,22.1045 11.2831,19.9378 10.5,17C 10.9031,15.5272 11.5697,14.1939 12.5,13C 17.4906,12.5628 17.824,13.7294 13.5,16.5C 18.9222,17.5114 24.2556,16.3447 29.5,13C 39.0653,10.0097 48.732,9.67641 58.5,12C 60.6238,13.1217 62.4571,14.6217 64,16.5C 63.8514,19.8397 65.3514,21.8397 68.5,22.5 Z"/></g>
<g><path style="opacity:1" fill="#f6836c" d="M 42.5,21.5 C 37.1667,21.5 31.8333,21.5 26.5,21.5C 31.5667,20.8118 36.7334,20.1451 42,19.5C 42.4643,20.0944 42.631,20.7611 42.5,21.5 Z"/></g>
<g><path style="opacity:1" fill="#feeccc" d="M 60.5,30.5 C 60.631,31.2389 60.4643,31.9056 60,32.5C 47.8654,31.1201 35.6987,31.2868 23.5,33C 19.5123,34.484 17.8456,37.3174 18.5,41.5C 17.1805,42.9418 15.5138,43.6085 13.5,43.5C 12.736,38.8595 13.9026,34.8595 17,31.5C 17.498,28.5184 17.6646,25.5184 17.5,22.5C 20.4824,22.0371 23.4824,21.7038 26.5,21.5C 31.8333,21.5 37.1667,21.5 42.5,21.5C 46.185,21.1046 49.8517,20.9379 53.5,21C 57.5859,22.9135 59.9192,26.0802 60.5,30.5 Z"/></g>
<g><path style="opacity:0.982" fill="#fc2316" d="M 17.5,22.5 C 17.6646,25.5184 17.498,28.5184 17,31.5C 13.9026,34.8595 12.736,38.8595 13.5,43.5C 15.5138,43.6085 17.1805,42.9418 18.5,41.5C 19.3414,43.3792 19.6747,45.3792 19.5,47.5C 17.8863,45.9254 15.8863,45.2587 13.5,45.5C 13.8174,48.5719 13.4841,51.5719 12.5,54.5C 11.5748,53.6431 10.9081,52.6431 10.5,51.5C 10.7678,49.901 10.4345,48.5676 9.5,47.5C 8.09851,44.201 6.26518,43.8677 4,46.5C 2.80193,52.5809 5.13526,56.5809 11,58.5C 12.2613,58.2409 13.2613,57.5742 14,56.5C 19.3056,63.7383 26.4722,67.7383 35.5,68.5C 39.1667,69.1667 42.8333,69.8333 46.5,70.5C 33.948,73.0784 23.2813,69.9118 14.5,61C 2.70524,59.5701 -0.961422,53.4035 3.5,42.5C 1.71658,37.001 1.04992,31.3343 1.5,25.5C 2.11742,25.6107 2.61742,25.944 3,26.5C 4.73423,24.5494 6.9009,23.5494 9.5,23.5C 9.5,24.5 9.5,25.5 9.5,26.5C 12.089,26.539 14.089,25.539 15.5,23.5C 16.1667,23.1667 16.8333,22.8333 17.5,22.5 Z"/></g>
<g><path style="opacity:0.989" fill="#fb2c1d" d="M 60.5,30.5 C 63.3066,30.9513 64.3066,32.2847 63.5,34.5C 63.9954,36.4817 64.4954,38.4817 65,40.5C 65.4169,41.756 66.2502,42.4226 67.5,42.5C 67.8333,42.5 68.1667,42.5 68.5,42.5C 65.6669,48.1584 63.5003,54.1584 62,60.5C 58.1882,65.986 53.0215,69.3194 46.5,70.5C 42.8333,69.8333 39.1667,69.1667 35.5,68.5C 46.526,70.3353 55.026,66.6686 61,57.5C 61.6811,55.4708 62.0144,53.4708 62,51.5C 52.6436,54.6568 47.1436,51.3234 45.5,41.5C 44.1266,41.3433 42.7932,41.51 41.5,42C 39.2612,50.9532 33.5946,54.6199 24.5,53C 21.921,51.9243 20.2543,50.091 19.5,47.5C 19.6747,45.3792 19.3414,43.3792 18.5,41.5C 17.8456,37.3174 19.5123,34.484 23.5,33C 35.6987,31.2868 47.8654,31.1201 60,32.5C 60.4643,31.9056 60.631,31.2389 60.5,30.5 Z"/></g>
<g><path style="opacity:1" fill="#f36f59" d="M 48.5,34.5 C 47.0582,35.8195 46.3915,37.4862 46.5,39.5C 45.7784,39.0825 45.2784,38.4158 45,37.5C 43.8861,41.4557 43.0527,41.4557 42.5,37.5C 43.8083,36.7677 45.1416,35.9344 46.5,35C 43.9615,34.2042 41.6282,34.3709 39.5,35.5C 38.9569,35.44 38.6236,35.1067 38.5,34.5C 41.8741,33.2495 45.2074,33.2495 48.5,34.5 Z"/></g>
<g><path style="opacity:1" fill="#faf0e0" d="M 39.5,35.5 C 41.6282,34.3709 43.9615,34.2042 46.5,35C 45.1416,35.9344 43.8083,36.7677 42.5,37.5C 41.2223,37.2178 40.2223,36.5511 39.5,35.5 Z"/></g>
<g><path style="opacity:1" fill="#fcf5f5" d="M 48.5,34.5 C 48.8333,34.5 49.1667,34.5 49.5,34.5C 52.0593,34.1984 54.3926,34.5318 56.5,35.5C 54.8117,41.5438 51.4784,42.8771 46.5,39.5C 46.3915,37.4862 47.0582,35.8195 48.5,34.5 Z"/></g>
<g><path style="opacity:1" fill="#fbf3f2" d="M 23.5,34.5 C 26.5719,34.1826 29.5719,34.5159 32.5,35.5C 31.1679,38.5578 29.1679,40.8911 26.5,42.5C 20.1972,41.281 19.1972,38.6143 23.5,34.5 Z"/></g>
<g><path style="opacity:1" fill="#f59b96" d="M 49.5,34.5 C 52.0241,33.1997 54.6908,33.1997 57.5,34.5C 57.3764,35.1067 57.0431,35.44 56.5,35.5C 54.3926,34.5318 52.0593,34.1984 49.5,34.5 Z"/></g>
<g><path style="opacity:1" fill="#f76156" d="M 63.5,34.5 C 65.7705,36.6123 67.1039,39.279 67.5,42.5C 66.2502,42.4226 65.4169,41.756 65,40.5C 64.4954,38.4817 63.9954,36.4817 63.5,34.5 Z"/></g>
<g><path style="opacity:1" fill="#ff7473" d="M 48.5,44.5 C 52.3539,44.5945 55.0206,46.4278 56.5,50C 52.3599,50.3662 49.6933,48.5328 48.5,44.5 Z"/></g>
<g><path style="opacity:1" fill="#feeacb" d="M 35.5,68.5 C 26.4722,67.7383 19.3056,63.7383 14,56.5C 13.2613,57.5742 12.2613,58.2409 11,58.5C 5.13526,56.5809 2.80193,52.5809 4,46.5C 6.26518,43.8677 8.09851,44.201 9.5,47.5C 7.89292,47.1776 6.22625,47.6776 4.5,49C 6.64057,49.5725 8.64057,50.4058 10.5,51.5C 10.9081,52.6431 11.5748,53.6431 12.5,54.5C 13.4841,51.5719 13.8174,48.5719 13.5,45.5C 15.8863,45.2587 17.8863,45.9254 19.5,47.5C 20.2543,50.091 21.921,51.9243 24.5,53C 33.5946,54.6199 39.2612,50.9532 41.5,42C 42.7932,41.51 44.1266,41.3433 45.5,41.5C 47.1436,51.3234 52.6436,54.6568 62,51.5C 62.0144,53.4708 61.6811,55.4708 61,57.5C 55.026,66.6686 46.526,70.3353 35.5,68.5 Z"/></g>
<g><path style="opacity:1" fill="#ff9a71" d="M 9.5,47.5 C 10.4345,48.5676 10.7678,49.901 10.5,51.5C 8.64057,50.4058 6.64057,49.5725 4.5,49C 6.22625,47.6776 7.89292,47.1776 9.5,47.5 Z"/></g>
<g><path style="opacity:1" fill="#f77271" d="M 20.5,45.5 C 24.7935,45.5748 28.1268,47.4081 30.5,51C 25.5851,51.8734 22.2518,50.0401 20.5,45.5 Z"/></g>
<g><path style="opacity:1" fill="#6c6861" d="M 33.5,57.5 C 38.5332,60.1063 43.5332,60.1063 48.5,57.5C 48.8333,57.8333 49.1667,58.1667 49.5,58.5C 45.9498,61.2803 41.9498,62.1136 37.5,61C 35.4556,60.5017 34.1223,59.335 33.5,57.5 Z"/></g>
</svg>
