<?xml version="1.0" encoding="UTF-8"?>
<!DOCTYPE svg PUBLIC "-//W3C//DTD SVG 1.1//EN" "http://www.w3.org/Graphics/SVG/1.1/DTD/svg11.dtd">
<svg xmlns="http://www.w3.org/2000/svg" version="1.1" width="72px" height="72px" style="shape-rendering:geometricPrecision; text-rendering:geometricPrecision; image-rendering:optimizeQuality; fill-rule:evenodd; clip-rule:evenodd" xmlns:xlink="http://www.w3.org/1999/xlink">
<g><path style="opacity:0.877" fill="#004c01" d="M 34.5,-0.5 C 35.8333,-0.5 37.1667,-0.5 38.5,-0.5C 38.3893,0.117425 38.056,0.617425 37.5,1C 43.9734,1.82648 50.3067,1.99315 56.5,1.5C 56.67,2.82207 56.3366,3.98873 55.5,5C 60.1529,6.23047 64.8195,7.39714 69.5,8.5C 68.3067,10.5267 66.64,12.0267 64.5,13C 66.5082,15.8548 67.8415,19.0215 68.5,22.5C 65.3514,21.8397 63.8514,19.8397 64,16.5C 61.1454,12.6563 57.3121,10.823 52.5,11C 46.8333,10.3333 41.1667,10.3333 35.5,11C 29.6945,13.1584 23.8611,15.3251 18,17.5C 16.9326,16.8095 15.7659,16.3095 14.5,16C 16.8718,14.5295 16.8718,13.3628 14.5,12.5C 12.8228,13.1869 11.1561,13.8535 9.5,14.5C 9.28099,13.325 9.61432,12.325 10.5,11.5C 14.5627,10.0491 18.0627,7.71578 21,4.5C 21.3333,4.83333 21.6667,5.16667 22,5.5C 26.2092,3.38628 30.3759,1.38628 34.5,-0.5 Z"/></g>
<g><path style="opacity:0.965" fill="#00c504" d="M 68.5,22.5 C 70.1744,25.5544 70.6744,28.8877 70,32.5C 69,31.5 68,30.5 67,29.5C 66.4436,31.8848 66.6103,34.2181 67.5,36.5C 66.8333,36.5 66.5,36.8333 66.5,37.5C 63.2996,33.7393 60.6329,29.7393 58.5,25.5C 56.4099,23.6098 54.0765,21.9431 51.5,20.5C 40.8476,21.2141 30.1809,21.8807 19.5,22.5C 18.0357,23.4054 16.7024,23.4054 15.5,22.5C 14.7611,22.631 14.0944,22.4643 13.5,22C 12.0229,20.1879 10.6896,18.3545 9.5,16.5C 9.5,15.8333 9.5,15.1667 9.5,14.5C 11.1561,13.8535 12.8228,13.1869 14.5,12.5C 16.8718,13.3628 16.8718,14.5295 14.5,16C 15.7659,16.3095 16.9326,16.8095 18,17.5C 23.8611,15.3251 29.6945,13.1584 35.5,11C 41.1667,10.3333 46.8333,10.3333 52.5,11C 57.3121,10.823 61.1454,12.6563 64,16.5C 63.8514,19.8397 65.3514,21.8397 68.5,22.5 Z"/></g>
<g><path style="opacity:1" fill="#004e03" d="M 9.5,16.5 C 10.6896,18.3545 12.0229,20.1879 13.5,22C 14.0944,22.4643 14.7611,22.631 15.5,22.5C 14.4522,24.5338 12.7855,25.8671 10.5,26.5C 9.61432,25.675 9.28099,24.675 9.5,23.5C 6.67035,23.6941 4.00368,24.3608 1.5,25.5C 2.05739,20.61 4.72406,17.61 9.5,16.5 Z"/></g>
<g><path style="opacity:1" fill="#f8ebcc" d="M 58.5,25.5 C 59.0889,27.3519 59.7556,29.1852 60.5,31C 49.1667,31.3333 37.8333,31.6667 26.5,32C 20.5763,32.4232 17.5763,35.5899 17.5,41.5C 16.3112,42.4287 14.9778,42.762 13.5,42.5C 13.5,40.5 13.5,38.5 13.5,36.5C 17.5695,32.7945 19.5695,28.1279 19.5,22.5C 30.1809,21.8807 40.8476,21.2141 51.5,20.5C 54.0765,21.9431 56.4099,23.6098 58.5,25.5 Z"/></g>
<g><path style="opacity:1" fill="#17c02a" d="M 58.5,25.5 C 60.6329,29.7393 63.2996,33.7393 66.5,37.5C 66.631,38.2389 66.4643,38.9056 66,39.5C 65,38.1667 64,36.8333 63,35.5C 62.6924,36.3081 62.1924,36.9747 61.5,37.5C 60.1469,35.2991 58.4802,34.6324 56.5,35.5C 53.7699,34.1834 50.9365,34.1834 48,35.5C 45.6217,38.7434 46.455,40.41 50.5,40.5C 52.6926,40.2295 54.3593,39.2295 55.5,37.5C 55.4606,38.5832 55.1272,39.5832 54.5,40.5C 51.9135,41.48 49.2469,41.8134 46.5,41.5C 46.5,42.8333 46.5,44.1667 46.5,45.5C 45.5655,44.4324 45.2322,43.099 45.5,41.5C 44.5,41.5 43.5,41.5 42.5,41.5C 41.8333,39.8333 41.1667,38.1667 40.5,36.5C 42.288,36.7852 43.9547,36.4519 45.5,35.5C 43.3635,34.2072 41.3635,34.2072 39.5,35.5C 38.8423,36.3984 38.1757,37.3984 37.5,38.5C 36.8933,38.3764 36.56,38.0431 36.5,37.5C 37.7736,36.8106 37.7736,35.9772 36.5,35C 34.0524,34.1469 33.3857,34.6469 34.5,36.5C 33.8333,36.5 33.1667,36.5 32.5,36.5C 28.6511,33.7846 24.8177,34.1179 21,37.5C 20.5304,38.5768 20.6971,39.5768 21.5,40.5C 20.2607,42.7072 19.7607,45.0405 20,47.5C 20.9236,45.5049 22.0903,45.1716 23.5,46.5C 21.3441,46.8718 21.3441,47.8718 23.5,49.5C 25.3163,50.7349 26.983,50.7349 28.5,49.5C 29.0431,49.56 29.3764,49.8933 29.5,50.5C 28.2713,51.2811 26.938,51.7811 25.5,52C 26.6667,52.1667 27.8333,52.3333 29,52.5C 32.8878,51.0975 36.3878,49.0975 39.5,46.5C 37.5734,51.7228 33.7401,54.0561 28,53.5C 22.2545,53.9226 19.0878,51.2559 18.5,45.5C 17.1667,45.5 15.8333,45.5 14.5,45.5C 14.5,47.5 14.5,49.5 14.5,51.5C 13.1857,49.1047 13.1857,46.6047 14.5,44C 13.3418,42.9914 12.6752,41.6581 12.5,40C 12.5143,38.6153 12.8476,37.4486 13.5,36.5C 13.5,38.5 13.5,40.5 13.5,42.5C 14.9778,42.762 16.3112,42.4287 17.5,41.5C 17.5763,35.5899 20.5763,32.4232 26.5,32C 37.8333,31.6667 49.1667,31.3333 60.5,31C 59.7556,29.1852 59.0889,27.3519 58.5,25.5 Z"/></g>
<g><path style="opacity:0.992" fill="#07c510" d="M 15.5,22.5 C 16.7024,23.4054 18.0357,23.4054 19.5,22.5C 19.5695,28.1279 17.5695,32.7945 13.5,36.5C 12.8476,37.4486 12.5143,38.6153 12.5,40C 12.6752,41.6581 13.3418,42.9914 14.5,44C 13.1857,46.6047 13.1857,49.1047 14.5,51.5C 14.5852,52.9953 13.9185,53.9953 12.5,54.5C 11.1408,53.3757 10.1408,52.0423 9.5,50.5C 9.5,49.8333 9.5,49.1667 9.5,48.5C 7.33912,44.3881 5.33912,44.5548 3.5,49C 4.6563,55.1953 8.1563,57.6953 14,56.5C 26.4823,69.8071 40.649,71.9737 56.5,63C 64.5556,54.6365 63.2223,51.3032 52.5,53C 49.1828,51.5198 47.1828,49.0198 46.5,45.5C 46.5,44.1667 46.5,42.8333 46.5,41.5C 49.2469,41.8134 51.9135,41.48 54.5,40.5C 55.1272,39.5832 55.4606,38.5832 55.5,37.5C 55.3284,36.5084 55.6618,35.8417 56.5,35.5C 58.4802,34.6324 60.1469,35.2991 61.5,37.5C 62.1924,36.9747 62.6924,36.3081 63,35.5C 64,36.8333 65,38.1667 66,39.5C 66.4643,38.9056 66.631,38.2389 66.5,37.5C 66.5,36.8333 66.8333,36.5 67.5,36.5C 69.1675,41.6585 68.3342,46.3252 65,50.5C 63.4979,60.3387 57.9979,66.8387 48.5,70C 35.321,73.1463 23.9877,70.1463 14.5,61C 2.72278,59.8382 -0.943886,53.8382 3.5,43C 1.74121,37.3122 1.07455,31.4789 1.5,25.5C 4.00368,24.3608 6.67035,23.6941 9.5,23.5C 9.28099,24.675 9.61432,25.675 10.5,26.5C 12.7855,25.8671 14.4522,24.5338 15.5,22.5 Z"/></g>
<g><path style="opacity:1" fill="#01c607" d="M 39.5,35.5 C 40.1667,35.5 40.5,35.8333 40.5,36.5C 41.1667,38.1667 41.8333,39.8333 42.5,41.5C 41.6873,43.2608 40.6873,44.9275 39.5,46.5C 36.3878,49.0975 32.8878,51.0975 29,52.5C 27.8333,52.3333 26.6667,52.1667 25.5,52C 26.938,51.7811 28.2713,51.2811 29.5,50.5C 29.3764,49.8933 29.0431,49.56 28.5,49.5C 27.5994,47.2729 25.9328,46.2729 23.5,46.5C 22.0903,45.1716 20.9236,45.5049 20,47.5C 19.7607,45.0405 20.2607,42.7072 21.5,40.5C 23.5504,40.9612 25.5504,41.6279 27.5,42.5C 28.709,40.0592 30.3757,38.0592 32.5,36.5C 33.1667,36.5 33.8333,36.5 34.5,36.5C 35.1667,36.8333 35.8333,37.1667 36.5,37.5C 36.56,38.0431 36.8933,38.3764 37.5,38.5C 38.1757,37.3984 38.8423,36.3984 39.5,35.5 Z"/></g>
<g><path style="opacity:1" fill="#83db9d" d="M 36.5,37.5 C 35.8333,37.1667 35.1667,36.8333 34.5,36.5C 33.3857,34.6469 34.0524,34.1469 36.5,35C 37.7736,35.9772 37.7736,36.8106 36.5,37.5 Z"/></g>
<g><path style="opacity:1" fill="#e4f4ec" d="M 32.5,36.5 C 30.3757,38.0592 28.709,40.0592 27.5,42.5C 25.5504,41.6279 23.5504,40.9612 21.5,40.5C 20.6971,39.5768 20.5304,38.5768 21,37.5C 24.8177,34.1179 28.6511,33.7846 32.5,36.5 Z"/></g>
<g><path style="opacity:1" fill="#ebf6f1" d="M 56.5,35.5 C 55.6618,35.8417 55.3284,36.5084 55.5,37.5C 54.3593,39.2295 52.6926,40.2295 50.5,40.5C 46.455,40.41 45.6217,38.7434 48,35.5C 50.9365,34.1834 53.7699,34.1834 56.5,35.5 Z"/></g>
<g><path style="opacity:1" fill="#ecefda" d="M 39.5,35.5 C 41.3635,34.2072 43.3635,34.2072 45.5,35.5C 43.9547,36.4519 42.288,36.7852 40.5,36.5C 40.5,35.8333 40.1667,35.5 39.5,35.5 Z"/></g>
<g><path style="opacity:1" fill="#6dd591" d="M 49.5,46.5 C 51.4802,45.6324 53.1469,46.2991 54.5,48.5C 54.1667,48.8333 53.8333,49.1667 53.5,49.5C 52.1482,48.4756 50.8149,47.4756 49.5,46.5 Z"/></g>
<g><path style="opacity:1" fill="#f7eacb" d="M 42.5,41.5 C 43.5,41.5 44.5,41.5 45.5,41.5C 45.2322,43.099 45.5655,44.4324 46.5,45.5C 47.1828,49.0198 49.1828,51.5198 52.5,53C 63.2223,51.3032 64.5556,54.6365 56.5,63C 40.649,71.9737 26.4823,69.8071 14,56.5C 8.1563,57.6953 4.6563,55.1953 3.5,49C 5.33912,44.5548 7.33912,44.3881 9.5,48.5C 7.62833,47.2054 5.96166,47.3721 4.5,49C 6.15448,49.6077 7.82115,50.1077 9.5,50.5C 10.1408,52.0423 11.1408,53.3757 12.5,54.5C 13.9185,53.9953 14.5852,52.9953 14.5,51.5C 14.5,49.5 14.5,47.5 14.5,45.5C 15.8333,45.5 17.1667,45.5 18.5,45.5C 19.0878,51.2559 22.2545,53.9226 28,53.5C 33.7401,54.0561 37.5734,51.7228 39.5,46.5C 40.6873,44.9275 41.6873,43.2608 42.5,41.5 Z"/></g>
<g><path style="opacity:1" fill="#ff9872" d="M 9.5,48.5 C 9.5,49.1667 9.5,49.8333 9.5,50.5C 7.82115,50.1077 6.15448,49.6077 4.5,49C 5.96166,47.3721 7.62833,47.2054 9.5,48.5 Z"/></g>
<g><path style="opacity:1" fill="#5ed285" d="M 23.5,46.5 C 25.9328,46.2729 27.5994,47.2729 28.5,49.5C 26.983,50.7349 25.3163,50.7349 23.5,49.5C 21.3441,47.8718 21.3441,46.8718 23.5,46.5 Z"/></g>
<g><path style="opacity:1" fill="#5b5a56" d="M 33.5,57.5 C 38.5332,60.1063 43.5332,60.1063 48.5,57.5C 48.8333,57.8333 49.1667,58.1667 49.5,58.5C 47.121,60.0419 44.4543,60.7086 41.5,60.5C 39.5,60.3333 37.5,60.1667 35.5,60C 34.244,59.5831 33.5774,58.7498 33.5,57.5 Z"/></g>
</svg>
