<?xml version="1.0" standalone="no"?>
<!DOCTYPE svg PUBLIC "-//W3C//DTD SVG 20010904//EN"
 "http://www.w3.org/TR/2001/REC-SVG-20010904/DTD/svg10.dtd">
<svg version="1.0" xmlns="http://www.w3.org/2000/svg"
 width="36.000000pt" height="36.000000pt" viewBox="0 0 36.000000 36.000000"
 preserveAspectRatio="xMidYMid meet">

<g transform="translate(0.000000,36.000000) scale(0.100000,-0.100000)"
fill="#000000" stroke="none">
<path d="M40 340 c0 -13 -7 -20 -20 -20 -19 0 -20 -7 -20 -160 l0 -160 77 0
78 0 102 102 103 103 0 77 0 78 -160 0 c-153 0 -160 -1 -160 -20z m120 -150
l0 -130 -40 0 -40 0 0 100 c0 93 -1 100 -20 100 -26 0 -25 7 3 36 15 17 33 24
60 24 l37 0 0 -130z m88 111 c3 -9 -2 -11 -17 -6 -27 8 -28 -11 0 -25 30 -17
23 -65 -10 -65 -13 0 -26 6 -29 14 -3 9 1 11 17 6 27 -8 28 11 1 25 -19 10
-27 49 -13 64 11 11 46 2 51 -13z m72 9 c0 -5 -4 -10 -10 -10 -5 0 -10 -22
-10 -50 0 -27 -4 -50 -10 -50 -5 0 -10 23 -10 50 0 28 -4 50 -10 50 -5 0 -10
5 -10 10 0 6 14 10 30 10 17 0 30 -4 30 -10z"/>
</g>
</svg>
