<?xml version="1.0" standalone="no"?>
<!DOCTYPE svg PUBLIC "-//W3C//DTD SVG 20010904//EN"
 "http://www.w3.org/TR/2001/REC-SVG-20010904/DTD/svg10.dtd">
<svg version="1.0" xmlns="http://www.w3.org/2000/svg"
 width="36.000000pt" height="36.000000pt" viewBox="0 0 36.000000 36.000000"
 preserveAspectRatio="xMidYMid meet">

<g transform="translate(0.000000,36.000000) scale(0.100000,-0.100000)"
fill="#000000" stroke="none">
<path d="M22 344 c-21 -14 -22 -22 -22 -157 0 -196 -8 -187 173 -187 196 0
187 -8 187 173 0 196 8 187 -173 187 -113 0 -147 -3 -165 -16z m298 -78 l0
-54 -70 -52 c-70 -52 -79 -63 -59 -75 7 -5 4 -14 -7 -26 -17 -19 -18 -19 -41
3 l-23 21 -25 -23 c-24 -22 -27 -23 -42 -7 -16 15 -15 18 7 42 l23 25 -21 23
c-22 23 -22 24 -3 41 12 11 21 14 26 7 12 -20 23 -11 75 59 l52 70 54 0 54 0
0 -54z"/>
</g>
</svg>
